<?xml version="1.0" standalone="no"?>
<!DOCTYPE svg PUBLIC "-//W3C//DTD SVG 20010904//EN"
 "http://www.w3.org/TR/2001/REC-SVG-20010904/DTD/svg10.dtd">
<svg version="1.0" xmlns="http://www.w3.org/2000/svg"
 width="914.000000pt" height="914.000000pt" viewBox="0 0 914.000000 914.000000"
 preserveAspectRatio="xMidYMid meet">
<metadata>
Created by potrace 1.11, written by Peter Selinger 2001-2013
</metadata>
<g transform="translate(0.000000,914.000000) scale(0.100000,-0.100000)"
fill="#000000" stroke="none">
<path d="M4983 8676 c-95 -30 -203 -115 -287 -226 -65 -85 -69 -99 -16 -54 8
7 42 28 75 46 267 150 487 131 634 -56 39 -49 39 -40 0 32 -116 210 -262 303
-406 258z"/>
<path d="M3998 8424 c-3 -2 -15 -6 -26 -9 -75 -14 -181 -106 -246 -213 -20
-33 -36 -63 -36 -68 0 -4 -7 -16 -17 -26 -28 -31 -9 -29 27 3 76 70 205 153
254 164 6 1 20 6 31 11 11 4 54 8 95 9 87 0 149 -20 216 -71 24 -19 47 -34 50
-34 9 0 -59 82 -106 126 -57 55 -127 94 -180 99 -22 2 -44 7 -49 9 -4 3 -10 3
-13 0z"/>
<path d="M4902 8328 c-169 -35 -329 -151 -409 -297 -35 -62 -41 -68 -58 -58
-11 5 -23 15 -27 21 -4 6 -8 7 -8 2 0 -5 -6 -4 -12 2 -13 9 -92 39 -133 49
-41 9 -229 10 -269 1 -22 -5 -52 -12 -65 -14 -36 -7 -143 -59 -175 -85 -29
-23 -37 -32 -83 -87 -39 -46 -82 -136 -99 -208 -18 -73 -25 -214 -11 -214 5 0
5 -4 2 -10 -7 -11 36 -174 47 -178 4 -2 8 -10 8 -17 0 -10 -15 -8 -59 11 -112
45 -236 35 -366 -31 -47 -23 -88 -39 -91 -34 -11 18 -169 81 -241 95 -21 5
-77 8 -124 8 -94 0 -145 -16 -210 -66 -20 -15 -40 -28 -43 -28 -3 0 -30 16
-61 35 -30 20 -55 33 -55 31 0 -3 -19 3 -42 14 -45 19 -99 31 -158 34 -77 4
-226 -51 -286 -105 -26 -24 -32 -24 -101 7 -91 41 -93 42 -192 79 -52 20 -102
37 -110 38 -9 1 -22 6 -28 10 -7 5 -13 6 -13 3 0 -3 -12 -1 -27 5 -16 6 -37
13 -48 15 -40 6 -80 15 -100 21 -20 6 -29 8 -125 19 -111 14 -281 3 -350 -21
-22 -8 -40 -12 -40 -10 0 2 -32 -12 -72 -32 -100 -51 -193 -145 -240 -243 -40
-83 -66 -159 -73 -211 -3 -19 -7 -45 -10 -59 -11 -50 -6 -187 9 -258 9 -45 27
-90 46 -118 16 -25 30 -47 30 -50 0 -6 79 -77 105 -93 18 -11 25 -28 31 -70 4
-31 7 -59 6 -62 0 -3 6 -30 14 -60 8 -30 17 -65 20 -79 7 -37 43 -119 68 -154
29 -42 38 -51 64 -65 26 -14 26 -14 95 74 26 33 52 65 56 71 17 21 64 119 82
169 l17 50 64 2 c35 1 77 2 93 2 41 0 39 0 135 5 47 3 121 6 165 8 l80 3 6
-35 c17 -90 22 -107 46 -152 49 -90 129 -144 228 -155 22 -3 43 -10 47 -17 16
-29 84 -98 108 -111 28 -14 60 -4 60 18 0 7 5 18 12 25 6 6 22 35 34 64 12 29
26 53 31 54 8 0 144 24 178 30 11 3 36 7 55 10 19 3 42 7 50 9 8 2 31 7 50 10
19 3 60 10 90 17 30 6 66 12 80 13 14 2 50 8 80 14 69 14 109 22 135 26 24 3
81 14 115 20 44 9 132 25 175 31 11 2 31 5 45 9 14 3 41 8 60 11 19 4 40 7 45
8 15 4 107 19 130 22 11 1 20 3 20 4 0 1 11 3 25 6 14 2 75 14 135 25 61 12
124 23 140 25 17 2 53 8 80 13 46 9 51 9 70 -13 38 -45 55 -66 55 -71 0 -3 10
-22 23 -43 22 -36 49 -111 64 -182 4 -19 7 -90 8 -158 l0 -122 -70 -66 c-62
-59 -209 -196 -330 -309 -24 -22 -82 -76 -131 -120 -48 -44 -97 -89 -108 -100
-12 -11 -55 -49 -96 -85 -41 -36 -81 -72 -90 -80 -15 -14 -152 -137 -190 -170
-99 -87 -144 -126 -149 -130 -19 -15 -112 -132 -139 -175 -55 -90 -71 -164
-46 -223 17 -42 17 -43 2 -41 -18 3 -93 -12 -104 -20 -16 -11 -71 -103 -102
-171 -39 -83 -59 -150 -71 -225 -10 -62 -7 -321 3 -365 4 -14 8 -41 11 -60 9
-75 45 -210 83 -318 37 -101 39 -113 24 -122 -100 -55 -122 -71 -178 -127 -77
-76 -96 -152 -58 -236 45 -99 195 -199 429 -286 93 -34 281 -91 350 -106 11
-2 31 -6 45 -9 14 -3 45 -10 70 -15 76 -17 224 -44 250 -46 14 -2 25 -4 25 -5
0 -1 14 -3 30 -5 17 -1 46 -5 65 -9 60 -10 264 -34 355 -41 17 -2 62 -6 100
-9 107 -10 220 -17 327 -20 53 -2 101 -7 107 -11 6 -3 11 -2 11 4 0 6 11 7 28
2 15 -4 38 -5 52 -4 14 2 34 3 45 2 28 -2 425 -1 570 2 66 1 134 -2 150 -6 17
-4 41 -9 55 -10 14 -2 27 -4 30 -5 5 -2 52 0 115 5 17 2 57 13 90 26 33 13 63
24 68 25 4 1 8 2 10 3 1 1 29 4 62 6 33 2 76 6 95 9 19 3 55 8 80 11 25 3 74
11 110 16 36 6 79 13 95 16 17 2 41 6 55 9 14 3 39 7 55 9 17 3 71 14 120 25
50 11 99 22 110 24 19 3 90 21 125 31 419 116 650 252 687 405 17 70 -23 156
-104 224 -17 14 -36 26 -41 26 -6 0 -17 8 -24 19 -7 10 -23 21 -35 25 -13 4
-23 10 -23 14 0 4 27 31 59 60 33 29 87 87 121 130 33 42 65 83 71 89 5 7 6
13 2 13 -4 0 -3 4 3 8 17 11 106 174 145 267 33 79 71 177 73 187 2 7 6 20 9
28 12 28 89 245 92 260 2 8 4 15 5 15 1 0 3 7 5 15 1 8 14 49 28 90 14 41 62
190 107 330 45 140 85 264 90 275 4 11 18 47 31 80 53 136 122 250 194 317 45
43 147 98 180 98 12 0 25 3 28 7 24 23 345 22 466 -2 12 -2 42 -7 66 -9 24 -3
47 -6 52 -7 20 -4 33 2 43 20 11 22 4 51 -13 51 -6 0 -18 6 -26 14 -22 20
-204 111 -215 108 -4 -2 -13 2 -20 7 -44 37 -366 128 -462 130 -28 1 -34 7
-69 79 -88 179 -187 285 -259 276 -102 -11 -225 -223 -240 -414 -2 -19 -8 -36
-14 -38 -6 -2 -42 -26 -81 -53 -39 -27 -71 -45 -71 -39 0 5 -4 10 -9 10 -6 0
-27 10 -47 22 -21 12 -47 24 -59 27 -43 9 -105 3 -129 -12 -24 -16 -75 -91
-80 -119 -2 -7 -8 -25 -14 -39 -11 -27 -18 -63 -27 -144 -4 -27 -8 -62 -10
-77 -2 -16 0 -28 3 -28 4 0 8 -27 8 -60 1 -32 7 -72 13 -88 11 -25 9 -37 -12
-88 -27 -63 -37 -72 -58 -51 -19 18 -116 55 -163 63 -98 15 -156 -29 -191
-143 -40 -134 -16 -343 55 -484 l18 -35 -46 -56 c-42 -51 -70 -74 -78 -66 -1
2 -5 16 -8 31 -2 15 -21 61 -41 103 -98 204 -266 263 -397 141 -16 -15 -28
-23 -29 -19 0 4 -2 14 -4 22 -15 73 -14 78 15 89 16 5 31 7 34 4 3 -4 6 -1 6
5 0 7 7 12 16 12 23 0 136 82 165 120 13 18 29 37 35 44 7 7 21 30 32 52 18
36 24 57 37 122 5 27 -25 99 -52 127 -43 44 -78 69 -129 92 -66 30 -82 34
-169 39 -38 3 -78 6 -87 8 -10 2 -18 -1 -18 -7 0 -30 -17 14 -31 81 -17 83
-17 92 8 92 35 0 132 58 190 115 100 97 150 224 121 307 -16 46 -96 122 -158
149 -14 6 -34 16 -45 20 -43 20 -148 35 -201 29 -59 -7 -71 -3 -71 20 -1 8 -8
44 -17 80 -11 48 -12 66 -4 71 7 4 16 5 20 3 5 -3 34 2 66 12 194 60 356 301
289 431 -18 34 -80 103 -92 103 -5 0 -16 7 -26 16 -9 8 -50 27 -91 40 -87 30
-208 35 -276 11 -32 -11 -44 -12 -47 -4 -16 48 -23 93 -17 98 4 4 21 9 37 12
17 3 50 10 75 17 25 7 50 13 55 14 6 1 48 20 95 43 179 87 274 230 264 399 -4
66 -6 77 -22 117 -7 16 -12 33 -12 38 0 15 -62 110 -100 152 l-32 37 27 35
c70 93 96 205 62 271 -45 87 -171 162 -302 180 -40 6 -95 6 -122 0 -13 -3 -23
-2 -24 2 0 4 -2 14 -4 22 -2 8 -7 29 -10 45 -4 17 -8 35 -9 40 -26 122 -115
252 -219 324 -47 32 -147 84 -147 76 0 -2 -12 0 -26 6 -72 27 -185 30 -292 7z
m-1374 -4120 c-16 -40 -30 -81 -31 -90 -1 -10 -4 -18 -8 -18 -4 0 -9 -12 -12
-27 -3 -16 -22 -82 -42 -148 -20 -66 -38 -129 -39 -140 -2 -11 -6 -29 -9 -40
-5 -19 -11 -59 -24 -165 -7 -62 -10 -153 -5 -164 3 -4 6 -32 8 -62 2 -43 -1
-54 -14 -58 -28 -8 -125 -26 -160 -30 -31 -3 -33 -2 -27 22 10 40 7 165 -5
234 -7 35 -25 90 -40 123 -16 33 -34 83 -41 110 -6 28 -27 80 -46 117 l-35 68
58 61 c33 33 78 81 101 107 23 25 50 46 60 47 15 1 72 12 108 21 23 5 130 47
135 53 7 8 83 50 91 51 4 0 -7 -33 -23 -72z"/>
<path d="M499 2072 c-12 -2 -14 -89 -14 -600 -1 -328 2 -599 6 -602 4 -3 78
-5 166 -5 l158 0 1 343 c1 188 4 346 8 349 3 3 6 2 6 -4 0 -6 18 -42 39 -82
22 -39 37 -71 34 -71 -3 0 -1 -6 5 -12 10 -12 35 -61 204 -388 l70 -135 227 0
226 0 1 602 c2 550 0 602 -15 605 -14 3 -270 2 -309 -1 -10 -1 -12 -11 -9 -35
3 -19 0 -39 -6 -45 -6 -6 -7 -11 -1 -11 11 0 11 -90 0 -108 -4 -6 -4 -12 1
-12 10 0 10 -91 -1 -108 -4 -6 -4 -12 1 -12 10 0 10 -91 -1 -108 -4 -6 -4 -12
1 -12 4 0 8 -23 8 -50 0 -28 -4 -50 -8 -50 -5 0 -5 -5 -1 -12 9 -14 14 -108 7
-121 -3 -4 -20 25 -40 65 -19 40 -44 89 -56 108 -12 19 -22 41 -23 48 -2 8 -9
21 -16 30 -8 10 -30 49 -48 87 -19 39 -47 92 -62 118 -16 26 -28 54 -28 62 0
7 -4 15 -8 17 -5 2 -20 28 -35 58 -48 102 -27 94 -264 95 -115 0 -216 -1 -224
-3z"/>
<path d="M6434 1941 c-13 -29 -24 -55 -24 -57 0 -2 -9 -24 -21 -49 -16 -33
-38 -56 -90 -91 l-69 -48 0 -83 c0 -59 4 -83 13 -84 6 -1 30 -2 52 -3 l40 -1
1 -170 c1 -148 7 -254 17 -305 15 -77 117 -180 178 -180 11 0 19 -4 19 -9 0
-5 54 -8 123 -7 96 2 136 7 187 25 64 22 95 45 84 63 -3 5 -6 63 -5 128 0 66
-4 120 -9 120 -5 0 -29 -7 -53 -15 -62 -21 -131 -26 -152 -12 -14 11 -17 34
-17 162 0 83 1 162 1 176 l1 25 100 -1 c56 0 104 2 109 5 10 7 9 273 -1 280
-4 3 -53 6 -108 5 l-100 -1 -1 41 c-1 22 -1 63 0 90 l2 50 -127 0 -126 0 -24
-54z"/>
<path d="M2050 1808 c-47 -10 -113 -30 -147 -44 -68 -29 -67 -25 -28 -109 8
-16 28 -61 44 -100 17 -40 36 -69 43 -68 7 1 44 14 83 28 38 14 92 29 120 32
27 3 52 6 55 8 14 9 70 -29 70 -46 0 -15 -8 -19 -37 -20 -99 -2 -186 -11 -234
-25 -30 -8 -60 -15 -66 -16 -7 -1 -13 -5 -13 -10 0 -5 -4 -7 -8 -4 -18 11
-108 -71 -136 -124 -26 -47 -30 -65 -30 -135 0 -103 6 -133 40 -190 31 -54 95
-104 156 -122 46 -13 195 -10 244 5 39 12 116 60 127 79 8 12 12 12 26 -4 10
-10 21 -31 25 -46 3 -16 14 -27 24 -28 9 -1 70 -2 134 -3 112 -1 118 0 119 19
5 158 -2 651 -11 689 -26 118 -104 198 -229 236 -80 24 -256 23 -371 -2z m245
-578 c1 -36 -26 -80 -55 -92 -55 -23 -114 0 -107 41 9 54 55 82 127 78 30 -2
35 -5 35 -27z"/>
<path d="M4570 1818 c-70 -14 -151 -58 -197 -106 -102 -107 -104 -325 -3 -432
l39 -42 -29 -26 c-30 -28 -58 -85 -55 -112 1 -8 3 -24 3 -36 1 -12 13 -37 26
-57 24 -35 20 -57 -9 -57 -7 0 -31 -19 -54 -42 -84 -85 -83 -225 1 -320 32
-36 110 -74 188 -92 64 -15 294 -16 370 -1 173 34 320 143 347 259 17 73 4
236 -19 236 -4 0 -8 6 -8 13 0 7 -15 27 -32 43 -80 74 -116 83 -333 87 -77 2
-148 8 -159 13 -14 9 -6 11 37 9 31 -1 82 2 114 7 79 13 76 13 91 21 6 5 12 5
12 2 0 -11 110 54 134 78 61 63 85 133 81 236 l-3 79 51 19 52 18 0 100 0 100
-180 2 c-99 2 -234 5 -300 7 -66 2 -140 0 -165 -6z m166 -226 c22 -15 31 -49
30 -111 -2 -70 -18 -91 -66 -91 -36 0 -54 37 -54 111 1 42 6 65 19 79 18 20
51 26 71 12z m108 -765 c11 -2 24 -11 30 -19 22 -35 -59 -69 -176 -74 -124 -5
-182 32 -128 81 11 10 20 15 20 11 0 -4 7 -3 15 1 13 8 197 8 239 0z"/>
<path d="M5628 1825 c-1 -1 -25 -6 -53 -9 -59 -8 -203 -52 -229 -72 -21 -15
-19 -21 48 -167 20 -42 36 -82 36 -87 0 -13 1 -13 62 11 89 36 147 50 201 51
41 0 55 -4 70 -23 10 -12 14 -26 10 -30 -4 -4 -53 -10 -108 -13 -288 -16 -421
-121 -418 -331 1 -69 27 -161 56 -195 67 -80 144 -111 266 -106 114 3 184 30
249 93 18 18 28 10 42 -32 6 -19 19 -39 28 -43 9 -5 71 -8 137 -8 l120 1 1
325 c1 361 -5 409 -57 488 -31 48 -107 112 -132 112 -7 0 -17 4 -22 9 -20 17
-100 29 -200 29 -57 1 -105 -1 -107 -3z m152 -601 c0 -94 -149 -138 -158 -47
-5 51 41 81 121 80 35 0 37 -2 37 -33z"/>
<path d="M7315 1811 c-172 -48 -286 -182 -310 -366 -29 -226 27 -388 178 -512
110 -89 355 -108 513 -38 100 44 210 177 228 276 3 13 5 24 6 24 4 0 11 80 13
145 3 82 -20 186 -55 258 -47 94 -176 194 -283 218 -64 15 -229 12 -290 -5z
m231 -315 c16 -26 19 -52 19 -151 0 -85 -4 -129 -15 -152 -17 -38 -66 -66 -91
-53 -9 5 -18 7 -21 5 -8 -8 -45 39 -56 71 -6 18 -10 73 -10 124 0 120 23 186
67 195 13 2 26 6 28 9 11 10 63 -21 79 -48z"/>
<path d="M8545 1818 c-43 -16 -99 -53 -135 -88 l-31 -30 -10 28 c-6 15 -13 39
-16 54 -3 15 -10 28 -17 30 -6 2 -69 4 -141 4 l-130 -1 -3 -472 c-2 -445 -1
-473 15 -474 59 -3 312 -4 330 -1 21 4 22 5 22 251 0 135 2 257 5 270 8 34 43
68 83 82 19 6 73 9 120 8 l86 -4 2 30 c4 66 17 194 24 249 4 31 4 59 -1 62
-18 11 -174 13 -203 2z"/>
<path d="M2695 1812 c-2 -3 21 -68 65 -177 4 -11 18 -47 30 -80 12 -33 26 -69
30 -80 12 -28 49 -126 115 -300 31 -82 61 -161 67 -175 5 -14 20 -50 32 -80
l21 -55 168 0 c101 0 172 4 176 10 5 6 27 62 51 125 23 63 51 133 60 155 10
22 21 51 24 65 4 14 11 34 16 45 5 11 24 61 43 110 19 50 47 120 61 157 14 36
26 73 26 82 0 8 4 17 9 20 5 3 12 18 16 33 3 15 15 45 25 68 39 85 49 80 -165
80 l-189 0 -39 -125 c-21 -69 -40 -133 -42 -144 -2 -10 -15 -53 -28 -95 -14
-42 -28 -89 -31 -104 -8 -35 -26 -26 -26 13 0 16 -4 31 -8 34 -5 3 -14 31 -21
63 -7 32 -17 63 -21 68 -4 6 -10 24 -13 40 -2 17 -15 64 -27 105 -12 41 -23
82 -25 90 -2 8 -4 16 -5 18 -3 2 -7 17 -9 30 -1 7 -379 11 -386 4z"/>
<path d="M3799 1815 c-1 0 -2 -212 -3 -472 -1 -413 1 -472 14 -475 8 -2 91 -4
184 -3 l170 0 0 143 c1 78 -3 142 -7 142 -5 0 -5 5 -1 12 11 17 11 548 0 548
-5 0 -4 6 0 13 8 10 10 40 5 82 -1 6 -69 10 -181 10 -99 0 -181 0 -181 0z"/>
</g>
</svg>
