<svg width="457" height="428" xmlns="http://www.w3.org/2000/svg">

 <g>
  <title>background</title>
  <rect fill="none" id="canvas_background" height="430" width="459" y="-1" x="-1"/>
 </g>
 <g>
  <title>Layer 1</title>
  <path id="svg_1" d="m135.265,227.846c0,0 -4,6.788 3.011,10.776c0,0 18.328,-16.796 17.767,-20.725c-0.563,-3.929 -8.672,-11.138 -20.778,9.949" fill="#FFD350"/>
  <path id="svg_2" d="m138.554,241.081l-1.267,-0.721c-2.578,-1.467 -4.215,-3.439 -4.86,-5.863c-1.02,-3.824 0.917,-7.324 1.104,-7.646c8.037,-14.002 14.511,-16.02 18.525,-15.251c3.446,0.661 5.61,3.526 5.966,6.014c0.619,4.328 -11.259,15.944 -18.395,22.483l-1.073,0.984zm-1.561,-12.228c-0.046,0.081 -1.313,2.375 -0.694,4.641c0.265,0.969 0.862,1.836 1.781,2.586c7.683,-7.162 15.627,-15.752 15.969,-17.976c-0.168,-0.885 -1.125,-2.265 -2.747,-2.576c-5.554,-1.058 -12.355,9.92 -14.303,13.313l-0.006,0.012z" fill="#010202"/>
  <path id="svg_3" d="m362.091,315.654c0,17.723 -55.935,32.092 -124.933,32.092c-68.997,0 -124.932,-14.369 -124.932,-32.092c0,-17.727 55.935,-32.095 124.932,-32.095c68.998,0.001 124.933,14.37 124.933,32.095" fill="#A7A9AC"/>
  <path id="svg_4" d="m130.814,248.726c-10.229,15.76 -13.067,38.43 4.456,65.467c4.934,7.611 61.392,-17.395 78.109,-9.346c0,0 10.14,-25.029 -19.959,-29.375c-7.98,-1.151 -24.34,4.881 -37.856,6.394c0,-0.001 9.009,-32.304 -24.75,-33.14" fill="#74A737"/>
  <path id="svg_5" d="m139.885,317.65c-3.156,0 -5.224,-0.721 -6.293,-2.369c-9.025,-13.924 -21.604,-41.228 -4.456,-67.646c0.379,-0.582 1.04,-0.924 1.727,-0.91c10.646,0.264 18.394,3.576 23.03,9.842c5.792,7.828 5.037,18.025 4.21,22.945c4.831,-0.725 9.934,-1.912 14.895,-3.068c8.446,-1.969 15.735,-3.667 20.709,-2.951c10.135,1.463 17.088,5.363 20.666,11.594c5.314,9.258 1.045,20.057 0.859,20.512c-0.207,0.514 -0.617,0.916 -1.134,1.113c-0.514,0.201 -1.089,0.178 -1.587,-0.063c-8.392,-4.039 -29.37,1.361 -46.226,5.699c-12.32,3.173 -20.971,5.302 -26.4,5.302m-7.997,-66.885c-15.008,24.233 -3.327,49.398 5.06,62.34c0.009,0.014 0.896,1.23 8.428,-0.006c5.366,-0.879 12.432,-2.697 19.914,-4.623c17.147,-4.414 36.428,-9.377 46.827,-6.248c0.843,-3.133 1.959,-9.648 -1.229,-15.172c-2.938,-5.097 -8.913,-8.328 -17.755,-9.604c-4.216,-0.609 -11.512,1.089 -19.229,2.888c-6.029,1.404 -12.266,2.857 -18.118,3.513c-0.661,0.074 -1.314,-0.186 -1.745,-0.691c-0.431,-0.506 -0.582,-1.193 -0.403,-1.834c0.036,-0.131 3.625,-13.503 -2.973,-22.396c-3.71,-5.003 -10.024,-7.747 -18.777,-8.167" fill="#010202"/>
  <path id="svg_6" d="m128.821,240.096c0,0 -4.959,6.636 -7.042,14.755c-1.332,5.19 7.828,8.922 22.143,13.926c0,0 10.186,-4.674 8.433,-12.619c-1.755,-7.947 -9.395,-20.427 -23.534,-16.062" fill="#FFD350"/>
  <path id="svg_7" d="m144.022,270.931l-0.762,-0.266c-15.301,-5.35 -25.198,-9.376 -23.418,-16.311c2.156,-8.408 7.165,-15.173 7.377,-15.455l0.39,-0.522l0.622,-0.192c5.486,-1.691 10.53,-1.23 14.996,1.367c6.361,3.703 9.944,11.027 11.08,16.174c2.076,9.414 -9.076,14.651 -9.552,14.869l-0.733,0.336zm-13.972,-29.11c-1.158,1.682 -4.704,7.172 -6.333,13.526c-0.97,3.776 11.363,8.216 20.05,11.257c2.023,-1.119 7.782,-4.812 6.634,-10.017c-0.962,-4.356 -3.943,-10.528 -9.186,-13.579c-3.291,-1.915 -7.045,-2.314 -11.165,-1.187" fill="#010202"/>
  <path id="svg_8" d="m122.646,252.157c0,0 -5.425,11.863 0.961,36.368c0,0 19.672,-3.004 22.949,-18.028c1.734,-7.951 -9.77,-22.703 -23.91,-18.34" fill="#FFD350"/>
  <path id="svg_9" d="m122.126,290.774l-0.455,-1.745c-6.49,-24.907 -1.077,-37.192 -0.844,-37.704l0.373,-0.813l0.855,-0.265c6.86,-2.117 14.045,-0.347 19.713,4.861c5.078,4.665 7.787,11.02 6.741,15.814c-1.474,6.759 -6.237,12.297 -13.772,16.016c-5.542,2.734 -10.615,3.53 -10.828,3.563l-1.783,0.273zm2.04,-36.961c-0.961,2.938 -3.62,13.663 0.912,32.362c4.675,-1.133 17.134,-5.145 19.523,-16.104c0.73,-3.343 -1.6,-8.397 -5.539,-12.016c-4.333,-3.982 -9.712,-5.5 -14.896,-4.242" fill="#010202"/>
  <path id="svg_10" d="m207.235,158.544c0,0 -25.57,25.107 -62.144,57.035c1.657,21.971 18.439,18.957 29.234,12.387c10.795,-6.571 42.343,-26.988 42.343,-26.988l-9.433,-42.434z" fill="#74A737"/>
  <path id="svg_11" d="m159.378,234.785c-2.451,0 -4.925,-0.462 -7.238,-1.65c-5.336,-2.739 -8.378,-8.595 -9.042,-17.405c-0.048,-0.629 0.204,-1.242 0.679,-1.657c36.104,-31.52 61.803,-56.704 62.058,-56.955c0.52,-0.508 1.271,-0.698 1.97,-0.491c0.696,0.207 1.227,0.774 1.384,1.484l9.435,42.434c0.182,0.816 -0.164,1.659 -0.865,2.113c-0.316,0.203 -31.695,20.507 -42.389,27.017c-2.377,1.444 -9.09,5.11 -15.992,5.11m-12.205,-18.368c0.681,6.77 2.964,11.193 6.794,13.16c5.546,2.848 13.616,0.152 19.32,-3.32c9.473,-5.766 35.317,-22.447 41.128,-26.203l-8.355,-37.581c-7.327,7.077 -29.643,28.381 -58.887,53.944" fill="#010202"/>
  <path id="svg_12" d="m140.402,238.118c0,0 -4,6.788 3.012,10.775c0,0 18.328,-16.795 17.766,-20.725c-0.563,-3.928 -8.672,-11.137 -20.778,9.95" fill="#FFD350"/>
  <path id="svg_13" d="m143.691,251.353l-1.266,-0.72c-2.579,-1.467 -4.214,-3.44 -4.861,-5.864c-1.021,-3.828 0.923,-7.332 1.105,-7.647c8.035,-13.997 14.506,-16.021 18.523,-15.249c3.447,0.661 5.61,3.525 5.967,6.014c0.618,4.327 -11.259,15.944 -18.395,22.483l-1.073,0.983zm-1.561,-12.227c-0.05,0.089 -1.313,2.378 -0.694,4.639c0.266,0.971 0.862,1.838 1.781,2.588c7.683,-7.164 15.627,-15.754 15.97,-17.977c-0.169,-0.885 -1.125,-2.266 -2.747,-2.576c-5.574,-1.076 -12.354,9.92 -14.303,13.314l-0.007,0.012z" fill="#010202"/>
  <path id="svg_14" d="m391.245,157.162c4.625,-0.346 14.456,17.585 12.827,20.617c-1.363,2.537 -8.887,5.945 -13.916,7.367c-4.463,1.262 -8.813,2.495 -9.487,-6.525c-0.675,-9.02 5.951,-21.113 10.576,-21.459" fill="#29461E"/>
  <path id="svg_15" d="m385.663,188.021c-1.261,0 -2.484,-0.277 -3.598,-1.055c-2,-1.399 -3.079,-4.004 -3.392,-8.195c-0.726,-9.694 6.356,-23.15 12.422,-23.604c2.656,-0.192 5.809,2.499 9.394,8.017c0.307,0.471 7.472,11.583 5.345,15.542c-1.947,3.623 -11.036,7.187 -15.134,8.345c-1.618,0.457 -3.358,0.95 -5.037,0.95m5.719,-28.864c-2.941,0.249 -9.364,10.674 -8.72,19.314c0.205,2.742 0.809,4.595 1.696,5.215c1.038,0.728 3.181,0.121 5.25,-0.465c5.767,-1.629 11.656,-4.771 12.646,-6.295c0.171,-1.602 -2.801,-8.829 -7.008,-14.23c-2.2,-2.827 -3.527,-3.511 -3.864,-3.539" fill="#010202"/>
  <path id="svg_16" d="m29.813,127.034c0,0 1.438,19.267 7.82,23.021c0,0 8.503,-8.362 10.071,-18.448c0,0 -8.815,-10.324 -17.891,-4.573" fill="#FFFFFF"/>
  <path id="svg_17" d="m37.941,152.557l-1.322,-0.778c-7.08,-4.165 -8.646,-22.517 -8.801,-24.596l-0.089,-1.196l1.014,-0.642c8.338,-5.283 17.044,0.937 20.481,4.963l0.596,0.699l-0.141,0.907c-1.65,10.619 -10.278,19.207 -10.644,19.567l-1.094,1.076zm-6.024,-24.406c0.617,6.349 2.488,15.62 5.538,19.147c2.208,-2.532 6.747,-8.388 8.104,-15.059c-1.878,-1.898 -7.659,-6.941 -13.642,-4.088" fill="#010202"/>
  <path id="svg_18" d="m288.563,301.699c0,0 56.688,32.645 81.468,-31.924c26.475,-68.978 16.771,-91.546 72.337,-82.083c0,0 -61.572,-39.9 -85.603,19.323c-24.029,59.222 -35.454,55.049 -51.895,39.03c-16.436,-16.019 -34.813,47.935 -16.307,55.654" fill="#74A737"/>
  <path id="svg_19" d="m320.194,311.974c-16.993,0 -30.968,-7.604 -32.52,-8.479c-5.687,-2.451 -8.83,-9.506 -8.857,-19.889c-0.042,-15.775 7.422,-37.292 17.105,-41.392c2.511,-1.062 6.339,-1.505 10.346,2.397c6.91,6.733 12.276,10.68 17.689,9.545c8.591,-1.799 18.427,-17.018 30.953,-47.894c6.759,-16.655 17.096,-27.276 30.725,-31.57c11.147,-3.514 24.697,-2.661 39.179,2.468c10.849,3.84 18.328,8.649 18.642,8.854c0.797,0.516 1.12,1.52 0.775,2.404c-0.344,0.885 -1.256,1.406 -2.199,1.244c-41.461,-7.062 -44.682,3.194 -56.66,41.349c-3.363,10.714 -7.551,24.049 -13.474,39.481c-7.765,20.231 -19.436,33.233 -34.69,38.645c-5.773,2.052 -11.551,2.837 -17.014,2.837m-20.799,-66.5c-0.749,0 -1.389,0.203 -1.912,0.424c-7.305,3.094 -14.706,22.118 -14.665,37.699c0.014,5.063 0.878,13.904 6.517,16.256c0.077,0.033 0.153,0.07 0.228,0.111c0.181,0.105 14.131,7.967 30.811,7.967c5.03,0 10.306,-0.713 15.529,-2.57c14.087,-5.01 24.941,-17.223 32.264,-36.302c5.879,-15.313 10.045,-28.584 13.393,-39.246c6.066,-19.328 10.078,-32.097 18.336,-39.306c6.811,-5.946 16.075,-7.926 31.521,-6.36c-2.367,-1.081 -5.076,-2.208 -8.027,-3.25c-9.502,-3.353 -23.56,-6.485 -36.563,-2.383c-12.43,3.921 -21.919,13.764 -28.203,29.253c-13.433,33.105 -23.553,48.15 -33.842,50.307c-7.915,1.655 -14.865,-4.326 -21.3,-10.596c-1.59,-1.545 -2.961,-2.004 -4.087,-2.004" fill="#010202"/>
  <path id="svg_20" d="m320.198,213.252c0.924,5.198 -5.857,15.911 -15.995,17.713c-10.138,1.802 -19.792,-5.991 -20.715,-11.19c-0.924,-5.197 5.822,-14.291 15.959,-16.092c10.137,-1.802 19.827,4.371 20.751,9.569" fill="#29461E"/>
  <path id="svg_21" d="m301.171,233.229c-9.826,0 -18.62,-7.295 -19.652,-13.104c-1.185,-6.672 6.693,-16.479 17.579,-18.413c5.058,-0.899 10.424,-0.063 15.099,2.353c4.413,2.282 7.394,5.586 7.972,8.836c0.575,3.239 -1.057,7.735 -4.259,11.731c-2.067,2.582 -6.554,7.092 -13.355,8.301c-1.136,0.203 -2.268,0.296 -3.384,0.296m1.892,-27.861c-1.104,0 -2.199,0.094 -3.268,0.283c-9.399,1.67 -15.002,10.049 -14.341,13.774c0.748,4.205 9.544,11.142 18.397,9.569c5.513,-0.979 9.217,-4.721 10.935,-6.863c2.787,-3.479 3.737,-6.861 3.441,-8.53c-0.287,-1.614 -2.214,-4.092 -5.871,-5.983c-2.849,-1.474 -6.109,-2.25 -9.293,-2.25" fill="#010202"/>
  <path id="svg_22" d="m312.385,173.734c0.924,5.198 -5.858,15.911 -15.995,17.714c-10.139,1.801 -19.792,-5.992 -20.715,-11.19c-0.925,-5.198 5.82,-14.292 15.959,-16.093c10.137,-1.801 19.826,4.372 20.751,9.569" fill="#29461E"/>
  <path id="svg_23" d="m293.357,193.712c-9.827,0 -18.62,-7.294 -19.652,-13.104c-0.579,-3.254 1.034,-7.371 4.315,-11.011c3.492,-3.874 8.201,-6.503 13.263,-7.403c5.066,-0.901 10.427,-0.064 15.101,2.353c4.413,2.283 7.394,5.586 7.971,8.837c1.123,6.321 -6.483,18.054 -17.615,20.032c-1.135,0.202 -2.266,0.296 -3.383,0.296m2.006,-27.876c-1.101,0 -2.23,0.094 -3.381,0.298c-5.65,1.004 -9.312,4.28 -10.991,6.143c-2.715,3.012 -3.638,6.002 -3.349,7.631c0.748,4.205 9.532,11.146 18.396,9.57c9.077,-1.613 15.123,-11.187 14.377,-15.393c-0.583,-3.275 -7.023,-8.249 -15.052,-8.249" fill="#010202"/>
  <path id="svg_24" d="m306.716,133.629c0.924,5.198 -5.858,15.911 -15.995,17.713c-10.14,1.801 -19.792,-5.992 -20.715,-11.19c-0.926,-5.198 5.82,-14.292 15.959,-16.093c10.137,-1.801 19.826,4.373 20.751,9.57" fill="#29461E"/>
  <path id="svg_25" d="m287.688,153.607c-9.826,0 -18.62,-7.294 -19.652,-13.104c-1.185,-6.672 6.694,-16.479 17.579,-18.413c5.063,-0.9 10.425,-0.064 15.1,2.353c4.413,2.283 7.394,5.586 7.971,8.836c0.576,3.24 -1.056,7.735 -4.258,11.731c-2.068,2.582 -6.556,7.093 -13.357,8.302c-1.134,0.201 -2.266,0.295 -3.383,0.295m2.007,-27.876c-1.101,0 -2.23,0.093 -3.381,0.298c-9.4,1.67 -15.002,10.049 -14.341,13.774c0.748,4.206 9.535,11.148 18.396,9.57c5.515,-0.979 9.219,-4.721 10.936,-6.864c2.788,-3.479 3.737,-6.861 3.441,-8.529c-0.583,-3.276 -7.023,-8.249 -15.051,-8.249" fill="#010202"/>
  <path id="svg_26" d="m301.759,63.785c0.924,5.198 -5.858,15.911 -15.995,17.713c-10.138,1.801 -19.792,-5.992 -20.715,-11.19c-0.924,-5.198 5.821,-14.292 15.959,-16.093c10.137,-1.801 19.827,4.372 20.751,9.57" fill="#29461E"/>
  <path id="svg_27" d="m282.727,83.762c-4.013,0 -8.114,-1.213 -11.836,-3.539c-4.241,-2.65 -7.234,-6.316 -7.812,-9.566c-0.579,-3.254 1.034,-7.37 4.314,-11.009c3.493,-3.874 8.202,-6.503 13.264,-7.403c5.063,-0.899 10.425,-0.064 15.1,2.353c4.413,2.283 7.394,5.586 7.971,8.836c0.575,3.24 -1.056,7.735 -4.259,11.731c-2.067,2.582 -6.554,7.093 -13.355,8.302c-1.116,0.197 -2.249,0.295 -3.387,0.295m2.011,-27.876c-1.101,0 -2.23,0.093 -3.381,0.298c-5.651,1.004 -9.313,4.279 -10.991,6.142c-2.715,3.012 -3.638,6.003 -3.349,7.632c0.301,1.695 2.305,4.568 5.992,6.873c2.28,1.425 6.922,3.672 12.403,2.697c5.513,-0.979 9.218,-4.721 10.936,-6.864c2.786,-3.479 3.737,-6.861 3.44,-8.529c-0.582,-3.276 -7.022,-8.249 -15.05,-8.249" fill="#010202"/>
  <path id="svg_28" d="m313.317,235.926c6.603,-0.839 13.105,7.541 14.527,18.718c1.42,11.178 -3.954,14.393 -10.138,16.94c-13.521,5.569 -14.427,-1.864 -15.847,-13.041s4.856,-21.778 11.458,-22.617" fill="#29461E"/>
  <path id="svg_29" d="m310.115,275.476c-1.673,0 -3.104,-0.36 -4.341,-1.08c-4.229,-2.459 -4.959,-8.217 -5.885,-15.508c-0.723,-5.674 0.35,-11.645 2.927,-16.473c2.609,-4.889 6.345,-7.979 10.249,-8.473c3.928,-0.499 7.845,1.492 11.039,5.611c2.959,3.813 4.992,9.084 5.724,14.838c1.602,12.594 -5.022,16.432 -11.357,19.041c-3.316,1.366 -6.063,2.044 -8.356,2.044m4.117,-37.608c-0.223,0 -0.443,0.014 -0.663,0.042c-2.562,0.325 -5.263,2.714 -7.225,6.39c-2.195,4.113 -3.106,9.213 -2.499,13.99c0.768,6.044 1.42,11.182 3.938,12.648c1.715,0.996 4.796,0.593 9.161,-1.204c5.814,-2.396 10.163,-5.009 8.913,-14.839c-0.642,-5.055 -2.388,-9.633 -4.915,-12.891c-2.086,-2.69 -4.446,-4.136 -6.71,-4.136" fill="#010202"/>
  <path id="svg_30" d="m336.864,213.968c3.02,-1.88 14.799,1.411 18.787,10.903c2.152,5.119 -2.63,17.505 -8.33,22.36c-4.291,3.654 -8.205,1.882 -12.192,-7.61c-3.991,-9.492 -2.745,-22.862 1.735,-25.653" fill="#29461E"/>
  <path id="svg_31" d="m343.362,250.999c-0.475,0 -0.947,-0.056 -1.418,-0.168c-3.241,-0.771 -5.993,-4.088 -8.661,-10.436c-4.298,-10.227 -3.001,-24.684 2.523,-28.125l0,-0.001c2.493,-1.554 6.607,-0.497 8.263,0.03c6.12,1.947 11.141,6.356 13.426,11.797c2.625,6.244 -2.95,19.609 -8.876,24.656c-1.754,1.495 -3.516,2.247 -5.257,2.247m-5.44,-35.334c-3.188,1.987 -4.83,13.951 -0.951,23.182c2.718,6.467 4.863,7.847 5.898,8.093c0.333,0.078 1.336,0.317 3.155,-1.231c5.535,-4.715 9.424,-16.156 7.782,-20.063c-2.726,-6.48 -9.07,-8.936 -10.95,-9.534c-2.799,-0.891 -4.562,-0.68 -4.934,-0.447" fill="#010202"/>
  <path id="svg_32" d="m359.381,181.788c3.981,-2.572 13.423,2.467 15.805,11.193c1.284,4.71 -6.273,14.93 -10.984,19.34c-3.385,3.172 -7.198,3.08 -9.581,-5.646c-2.382,-8.726 0.865,-22.369 4.76,-24.887" fill="#29461E"/>
  <path id="svg_33" d="m360.339,216.229c-0.54,0 -1.021,-0.081 -1.438,-0.199c-2.771,-0.784 -4.804,-3.672 -6.212,-8.828c-2.443,-8.951 0.647,-23.89 5.605,-27.093c1.949,-1.261 4.666,-1.328 7.646,-0.187c3.992,1.525 9.313,5.725 11.172,12.532c1.743,6.388 -7.854,17.867 -11.546,21.326c-2.022,1.899 -3.822,2.449 -5.227,2.449m0.127,-32.761c-2.7,1.746 -6.244,14.15 -3.916,22.681c1.389,5.088 2.984,5.903 3.44,6.032c0.95,0.268 2.192,-0.709 2.845,-1.318c5.319,-4.984 11.294,-14.154 10.421,-17.354c-1.37,-5.02 -5.378,-8.564 -8.741,-9.851c-1.707,-0.653 -3.221,-0.725 -4.049,-0.19" fill="#010202"/>
  <path id="svg_34" d="m303.389,276.955c2.796,-8.676 3.533,-18.929 1.483,-30.909c-13.017,-76.092 -27.451,-129.906 -27.451,-129.906c46.806,-5.507 24.715,-49.81 0.25,-43.052c2.628,-8.243 1.31,-16.275 0.437,-22.491c-4.19,-29.822 -45.239,-31.692 -54.752,-2.116c-3.716,-6.667 -19.009,-9.347 -30.359,-4.511c-10.251,4.367 -20.951,21.359 -7.34,42.211c-4.93,-1.197 -13.611,-11.686 -30.132,0c0,0 -21.024,-13.939 -31.537,0c0,0 -15.019,-15.44 -31.537,0c0,0 -47.308,-25.342 -66.33,-2.116c-4.853,5.925 -9.262,18.809 -6.258,31.324c1.567,6.531 10.263,17.02 33.54,16.269c23.278,-0.751 108.965,-4.255 144.751,-15.622c56.114,59.425 -33.541,162.473 -6.508,187.502c15.258,14.129 53.511,18.229 81.6,5.438c15.317,-7.277 23.073,-12.125 30.143,-32.021" fill="#74A737"/>
  <path id="svg_35" d="m235.378,318.572c-18.172,0 -35.496,-4.684 -45.091,-13.564c-11.932,-11.047 -3.731,-33.956 6.647,-62.959c14.257,-39.833 31.968,-89.324 0.609,-123.728c-36.514,11.09 -119.337,14.539 -144.079,15.338c-30.168,0.975 -35.087,-15.877 -35.55,-17.802c-3.038,-12.658 1.049,-26.212 6.654,-33.058c8.3,-10.133 22.934,-13.011 42.316,-8.328c11.775,2.845 21.808,7.577 25.249,9.302c14.084,-12.176 27.142,-4.011 31.635,-0.427c9.001,-9.468 23.878,-4.328 31.711,0.441c11.704,-7.767 19.867,-5.027 25.271,-2.254c-4.616,-9.779 -3.924,-17.838 -2.296,-23.197c2.226,-7.329 7.497,-13.538 13.755,-16.204c10.323,-4.397 24.094,-2.983 30.458,2.471c6.233,-14.6 19.982,-20.23 31.5,-19.249c13.779,1.185 23.953,10.985 25.919,24.966l0.118,0.839c0.784,5.526 1.735,12.229 0.211,19.364c7.129,-0.813 14.314,2.017 19.735,7.927c6.189,6.746 8.305,15.586 5.524,23.07c-3.159,8.506 -12.263,14.248 -25.749,16.301c2.821,10.885 15.491,61.099 26.916,127.888c2.004,11.724 1.481,22.443 -1.554,31.861c-0.006,0.019 -0.012,0.036 -0.019,0.056c-7.481,21.05 -16.274,26.082 -31.171,33.16c-11.534,5.253 -25.357,7.786 -38.719,7.786m-37.224,-204.536c0.541,0 1.07,0.22 1.454,0.627c34.203,36.222 15.846,87.517 1.095,128.733c-9.492,26.52 -17.689,49.424 -7.698,58.676c14.096,13.053 51.052,18 79.41,5.086c14.308,-6.797 22.115,-11.268 29.079,-30.844c2.827,-8.791 3.302,-18.861 1.407,-29.931c-12.851,-75.131 -27.268,-129.187 -27.412,-129.725c-0.149,-0.561 -0.05,-1.16 0.276,-1.641c0.327,-0.48 0.845,-0.795 1.422,-0.863c13.17,-1.55 21.956,-6.532 24.741,-14.028c2.221,-5.977 0.366,-13.425 -4.724,-18.973c-5.218,-5.688 -12.321,-7.982 -19.003,-6.137c-0.705,0.196 -1.466,-0.012 -1.974,-0.542c-0.509,-0.528 -0.688,-1.294 -0.464,-1.993c2.372,-7.44 1.323,-14.826 0.479,-20.761l-0.118,-0.844c-1.695,-12.065 -10.449,-20.518 -22.302,-21.537c-10.767,-0.922 -23.766,4.824 -28.565,19.754c-0.244,0.758 -0.915,1.299 -1.707,1.378c-0.798,0.083 -1.557,-0.321 -1.944,-1.017c-3.047,-5.469 -17.092,-8.218 -27.828,-3.644c-4.075,1.736 -9.234,6.244 -11.496,13.688c-1.689,5.56 -2.185,14.513 5.047,25.59c0.447,0.687 0.432,1.578 -0.042,2.248c-0.475,0.671 -1.31,0.981 -2.105,0.789c-1.314,-0.319 -2.657,-1.065 -4.21,-1.928c-5.204,-2.89 -12.33,-6.846 -24.293,1.617c-0.673,0.476 -1.57,0.49 -2.259,0.035c-0.195,-0.129 -19.588,-12.728 -28.837,-0.463c-0.353,0.466 -0.89,0.755 -1.471,0.792c-0.586,0.03 -1.153,-0.184 -1.561,-0.602c-0.557,-0.567 -13.885,-13.817 -28.738,0.066c-0.625,0.587 -1.555,0.708 -2.309,0.303c-0.459,-0.245 -46.078,-24.295 -63.839,-2.613c-4.86,5.934 -8.565,18.321 -5.86,29.59c1.395,5.807 9.61,15.46 31.531,14.738c24.889,-0.803 108.845,-4.296 144.212,-15.53c0.2,-0.063 0.404,-0.094 0.606,-0.094" fill="#010202"/>
  <path id="svg_36" d="m223.355,67.331c0,10.411 -8.439,18.85 -18.85,18.85c-10.411,0 -18.853,-8.439 -18.853,-18.85s8.44,-18.85 18.853,-18.85c10.41,0 18.85,8.439 18.85,18.85" fill="#FFFFFF"/>
  <path id="svg_37" d="m204.505,88.182c-11.496,0 -20.851,-9.354 -20.851,-20.851c0,-11.496 9.354,-20.85 20.851,-20.85c11.497,0 20.851,9.354 20.851,20.85c-0.001,11.497 -9.354,20.851 -20.851,20.851m0,-37.701c-9.291,0 -16.851,7.559 -16.851,16.85c0,9.292 7.56,16.851 16.851,16.851s16.851,-7.559 16.851,-16.851c-0.001,-9.291 -7.56,-16.85 -16.851,-16.85" fill="#010202"/>
  <path id="svg_38" d="m217.365,67.331c0,7.102 -5.758,12.86 -12.859,12.86c-7.103,0 -12.859,-5.758 -12.859,-12.86s5.758,-12.86 12.859,-12.86s12.859,5.758 12.859,12.86" fill="#F6EA4B"/>
  <path id="svg_39" d="m212.748,67.331c0,4.552 -3.69,8.243 -8.243,8.243c-4.552,0 -8.242,-3.691 -8.242,-8.243c0,-4.552 3.69,-8.243 8.242,-8.243c4.553,0 8.243,3.691 8.243,8.243" fill="#010202"/>
  <path id="svg_40" d="m216.284,60.839c0,3.797 -3.078,6.874 -6.874,6.874c-3.798,0 -6.874,-3.077 -6.874,-6.874s3.076,-6.874 6.874,-6.874c3.796,0 6.874,3.077 6.874,6.874" fill="#FFFFFF"/>
  <path id="svg_41" d="m272.413,67.331c0,13.547 -10.98,24.529 -24.527,24.529c-13.549,0 -24.53,-10.982 -24.53,-24.529s10.981,-24.529 24.53,-24.529c13.547,0 24.527,10.982 24.527,24.529" fill="#FFFFFF"/>
  <path id="svg_42" d="m247.885,93.861c-14.628,0 -26.529,-11.901 -26.529,-26.53c0,-14.628 11.901,-26.529 26.529,-26.529s26.528,11.901 26.528,26.529c0,14.629 -11.9,26.53 -26.528,26.53m0,-49.059c-12.423,0 -22.529,10.106 -22.529,22.529s10.106,22.53 22.529,22.53s22.528,-10.107 22.528,-22.53s-10.105,-22.529 -22.528,-22.529" fill="#010202"/>
  <path id="svg_43" d="m264.618,67.331c0,9.242 -7.491,16.734 -16.733,16.734c-9.241,0 -16.733,-7.492 -16.733,-16.734s7.492,-16.734 16.733,-16.734c9.242,0 16.733,7.492 16.733,16.734" fill="#F6EA4B"/>
  <path id="svg_44" d="m258.611,67.331c0,5.924 -4.803,10.726 -10.727,10.726s-10.727,-4.802 -10.727,-10.726s4.803,-10.726 10.727,-10.726s10.727,4.802 10.727,10.726" fill="#010202"/>
  <path id="svg_45" d="m263.213,58.883c0,4.94 -4.006,8.945 -8.945,8.945c-4.94,0 -8.944,-4.005 -8.944,-8.945c0,-4.94 4.004,-8.945 8.944,-8.945c4.939,0 8.945,4.005 8.945,8.945" fill="#FFFFFF"/>
  <path id="svg_46" d="m231.151,24.78c0,0 25.995,-22.026 40.262,1.001c-0.001,0 -14.195,-39.047 -40.262,-1.001" fill="#010202"/>
  <path id="svg_47" d="m182.349,39.578c0,0 19.979,-23.441 36.065,-4.978c0,0 -18.358,-32.766 -36.065,4.978" fill="#010202"/>
  <path id="svg_48" d="m76.779,104.575c-2.815,6.913 -8.757,11.028 -13.27,9.19c-4.513,-1.838 -5.888,-8.933 -3.073,-15.846c2.816,-6.914 8.757,-11.028 13.271,-9.19c4.512,1.838 5.888,8.933 3.072,15.846" fill="#29461E"/>
  <path id="svg_49" d="m65.812,116.211c-1.043,0 -2.07,-0.193 -3.057,-0.594c-2.83,-1.152 -4.781,-3.813 -5.495,-7.491c-0.653,-3.37 -0.183,-7.263 1.324,-10.962c3.28,-8.057 10.255,-12.576 15.876,-10.287c2.829,1.152 4.779,3.812 5.493,7.491c0.653,3.369 0.184,7.262 -1.322,10.961c-2.706,6.644 -7.922,10.882 -12.819,10.882m5.594,-25.924c-3.223,0 -7.1,3.43 -9.117,8.386c-1.218,2.989 -1.608,6.075 -1.102,8.691c0.26,1.337 1.004,3.704 3.076,4.548c3.421,1.396 8.309,-2.31 10.664,-8.092c1.216,-2.988 1.607,-6.075 1.1,-8.691c-0.259,-1.336 -1.004,-3.704 -3.075,-4.548c-0.49,-0.199 -1.009,-0.294 -1.546,-0.294" fill="#010202"/>
  <path id="svg_50" d="m78.221,130.63c0,0 -1.041,20.713 18.983,17.003c20.023,-3.71 85.4,-15.349 95.367,-17.289c38.579,38.109 -49.062,123.711 -14.525,162.201c31.215,34.789 98.374,19.58 94.369,-17.463c-4.005,-37.045 -14.958,-152.454 -9.201,-173.834c-0.001,-0.001 -108.816,25.905 -184.993,29.382" fill="#FFD350"/>
  <path id="svg_51" d="m224.687,314.078c-17.111,0.002 -35.355,-5.961 -48.13,-20.197c-17.787,-19.823 -4.826,-51.236 7.708,-81.615c12.415,-30.092 25.247,-61.195 7.629,-79.754c-6.712,1.274 -26.65,4.862 -47.689,8.647c-18.399,3.312 -37.425,6.735 -46.636,8.441c-6.475,1.2 -11.655,0.147 -15.399,-3.129c-6.39,-5.591 -5.966,-15.52 -5.945,-15.94l0.091,-1.815l1.815,-0.083c75.113,-3.428 183.532,-29.072 184.62,-29.331l3.268,-0.778l-0.873,3.244c-5.532,20.548 4.808,131.92 9.258,173.1c1.552,14.349 -6.698,26.654 -22.636,33.761c-7.823,3.488 -17.267,5.449 -27.081,5.449m-31.462,-185.899l0.751,0.742c20.604,20.352 7.072,53.15 -6.014,84.869c-12.617,30.582 -24.535,59.468 -8.427,77.418c18.835,20.992 50.433,22.76 70.603,13.766c14.245,-6.354 21.641,-17.17 20.288,-29.678c-0.155,-1.436 -14.896,-138.769 -9.792,-171.395c-18.021,4.149 -112.112,25.2 -180.368,28.633c0.189,2.719 1.027,7.866 4.551,10.938c2.776,2.42 6.82,3.158 12.023,2.195c9.221,-1.709 28.252,-5.134 46.656,-8.445c21.301,-3.833 43.328,-7.797 48.692,-8.841l1.037,-0.202z" fill="#010202"/>
  <path id="svg_52" d="m86.442,130.176c0,0 5.877,21.665 12.765,24.385c0,0 8.469,-15.494 8.455,-25.701c0,0 -12.629,-0.302 -21.22,1.316" fill="#FFFFFF"/>
  <path id="svg_53" d="m100.114,157.07l-1.642,-0.648c-7.602,-3.002 -13.332,-23.406 -13.96,-25.722l-0.567,-2.089l2.127,-0.4c8.697,-1.638 21.114,-1.363 21.638,-1.35l1.949,0.047l0.003,1.949c0.015,10.598 -8.345,26.012 -8.7,26.664l-0.848,1.549zm-11.131,-25.285c2.113,7.042 5.887,16.588 9.455,19.905c2.001,-4.001 6.401,-13.491 7.122,-20.85c-3.433,-0.015 -10.63,0.096 -16.577,0.945" fill="#010202"/>
  <path id="svg_54" d="m167.759,120.215c0,0 -6.136,-14.41 -11.734,-15.84c0,0 -4.191,9.496 -4.692,18.441c-0.001,0 8.446,-1.42 16.426,-2.601" fill="#FFFFFF"/>
  <path id="svg_55" d="m149.195,125.204l0.141,-2.499c0.515,-9.202 4.683,-18.735 4.859,-19.137l0.685,-1.549l1.641,0.419c1.094,0.28 6.87,2.414 13.079,16.994l1.015,2.384l-2.563,0.378c-7.869,1.165 -16.303,2.581 -16.387,2.595l-2.47,0.415zm7.869,-18.054c-1.04,2.737 -2.814,7.957 -3.5,13.269c2.606,-0.428 6.876,-1.119 11.276,-1.788c-2.123,-4.395 -5.207,-9.458 -7.776,-11.481" fill="#010202"/>
  <path id="svg_56" d="m215.87,143.394c-10.269,0 -17.396,-5.122 -24.629,-11.556c-0.825,-0.734 -0.899,-1.998 -0.165,-2.824c0.732,-0.824 1.998,-0.899 2.822,-0.164c10.983,9.77 22.338,19.87 59.244,-5.213c0.913,-0.621 2.159,-0.383 2.778,0.53c0.621,0.914 0.384,2.158 -0.53,2.779c-17.648,11.994 -29.948,16.448 -39.52,16.448" fill="#010202"/>
  <path id="svg_57" d="m223.915,168.318c-15.818,0 -22.495,-7.814 -22.928,-8.343c-0.698,-0.855 -0.572,-2.115 0.28,-2.814c0.854,-0.696 2.106,-0.573 2.81,0.273c0.197,0.235 15.741,17.793 57.447,-4.634c0.974,-0.525 2.186,-0.159 2.709,0.814c0.522,0.973 0.158,2.185 -0.813,2.708c-16.956,9.12 -29.913,11.996 -39.505,11.996" fill="#010202"/>
  <path id="svg_58" d="m225.277,199.488c-20.038,0 -29.886,-10.491 -30.497,-11.166c-0.74,-0.819 -0.679,-2.084 0.141,-2.825c0.817,-0.74 2.081,-0.679 2.822,0.137c0.879,0.957 21.48,22.53 65.93,-1.373c0.974,-0.525 2.186,-0.158 2.709,0.813c0.521,0.974 0.157,2.187 -0.814,2.709c-16.352,8.792 -29.735,11.705 -40.291,11.705" fill="#010202"/>
  <path id="svg_59" d="m219.743,232.766c-5.026,0 -10.09,-0.56 -15.098,-1.843c-13.774,-3.533 -20.516,-10.842 -20.796,-11.15c-0.741,-0.818 -0.679,-2.083 0.14,-2.824c0.817,-0.74 2.08,-0.679 2.821,0.135c0.063,0.068 6.381,6.845 19.099,10.033c21.377,5.359 44.132,-3.341 59.457,-11.582c0.975,-0.524 2.186,-0.158 2.709,0.814c0.522,0.973 0.158,2.186 -0.813,2.709c-12.499,6.722 -29.766,13.708 -47.519,13.708" fill="#010202"/>
  <path id="svg_60" d="m215.14,273.843c-6.471,0 -13.039,-0.752 -19.585,-2.49c-16.873,-4.482 -25.46,-13.346 -25.817,-13.721c-0.762,-0.801 -0.73,-2.066 0.069,-2.828c0.799,-0.76 2.063,-0.73 2.825,0.066c0.081,0.084 8.322,8.529 24.197,12.682c14.688,3.842 39.127,4.694 72.145,-13.062c0.974,-0.524 2.186,-0.157 2.709,0.813c0.521,0.974 0.158,2.188 -0.814,2.709c-14.502,7.799 -34.575,15.831 -55.729,15.831" fill="#010202"/>
  <path id="svg_61" d="m301.105,299.468c0,26.043 -13.962,47.156 -31.185,47.156c-17.224,0 -31.186,-21.113 -31.186,-47.156c0,-26.045 11.763,-68.372 30.115,-23.606c15.994,-43.105 32.256,-2.439 32.256,23.606" fill="#74A737"/>
  <path id="svg_62" d="m269.921,348.625c-18.299,0 -33.187,-22.051 -33.187,-49.156c0,-16.953 4.914,-43.004 15.459,-45.083c5.574,-1.104 11.033,4.231 16.582,16.276c4.914,-11.37 10.363,-16.593 16.215,-15.546c6.476,1.163 10.801,9.713 13.289,16.682c3.021,8.461 4.825,18.806 4.825,27.67c0.001,27.106 -14.885,49.157 -33.183,49.157m-16.414,-90.364c-0.203,0 -0.384,0.02 -0.54,0.051c-5.655,1.113 -12.231,19.335 -12.231,41.156c0,24.898 13.093,45.156 29.187,45.156c16.093,0 29.185,-20.258 29.185,-45.156c0,-16.642 -6.978,-39.006 -14.82,-40.414c-4.277,-0.777 -9.087,5.451 -13.559,17.504c-0.286,0.771 -1.018,1.289 -1.841,1.304c-0.012,0 -0.023,0 -0.034,0c-0.812,0 -1.542,-0.49 -1.851,-1.241c-6.596,-16.084 -11.342,-18.36 -13.496,-18.36" fill="#010202"/>
  <path id="svg_63" d="m239.845,284.494c5.95,5.461 17.851,10.345 29.876,1.601c6.799,6.246 20.084,3.826 29.877,-1.638c-6.096,-29.589 -20.063,-37.397 -30.746,-8.596c-13.21,-32.221 -26.146,-18.024 -29.007,8.633" fill="#FFD350"/>
  <path id="svg_64" d="m255.81,292.923c-6.944,0 -13.119,-3.103 -17.317,-6.956l-0.744,-0.684l0.108,-1.003c1.805,-16.815 7.368,-27.892 14.521,-28.906c5.695,-0.813 11.215,4.345 16.399,15.341c5.614,-12.687 11.418,-15.17 15.471,-14.855c7.427,0.566 13.734,10.842 17.311,28.193l0.296,1.437l-1.28,0.714c-9.57,5.339 -22.996,8.16 -30.95,2.389c-4.712,3.086 -9.419,4.33 -13.815,4.33m-13.862,-9.242c6.106,5.115 16.418,8.195 26.597,0.797l1.322,-0.963l1.205,1.107c5.707,5.243 17.253,3.395 26.255,-1.219c-3.706,-16.863 -9.305,-23.244 -13.385,-23.555c-4.326,-0.321 -9.155,5.76 -13.217,16.709l-1.782,4.804l-1.943,-4.741c-4.747,-11.581 -9.881,-17.886 -14.063,-17.285c-4.888,0.695 -9.356,10.645 -10.989,24.346" fill="#010202"/>
  <path id="svg_65" d="m282.082,315.417c0,7.719 -5.365,13.979 -11.984,13.979s-11.985,-6.26 -11.985,-13.979c0,-7.721 5.366,-13.979 11.985,-13.979s11.984,6.259 11.984,13.979" fill="#FFD350"/>
  <path id="svg_66" d="m270.098,331.396c-7.712,0 -13.985,-7.168 -13.985,-15.979s6.273,-15.979 13.985,-15.979s13.984,7.168 13.984,15.979s-6.272,15.979 -13.984,15.979m0,-27.957c-5.506,0 -9.985,5.371 -9.985,11.979c0,6.605 4.479,11.979 9.985,11.979s9.984,-5.373 9.984,-11.979c0,-6.608 -4.478,-11.979 -9.984,-11.979" fill="#010202"/>
  <path id="svg_67" d="m272.902,262.39c0,0 8.739,19.857 13.851,13.617c4.324,-5.279 5.327,-25.783 2.185,-28.205c-3.148,-2.424 -22.076,-8.966 -16.036,14.588" fill="#FFD350"/>
  <path id="svg_68" d="m282.492,280.22c-0.21,0 -0.422,-0.014 -0.635,-0.043c-5.826,-0.797 -11.674,-13.453 -12.787,-15.982l-0.105,-0.309c-2.361,-9.206 -1.354,-15.329 2.999,-18.195c5.383,-3.546 13.765,-0.346 16.191,1.525c1.247,0.963 2.004,2.927 2.376,6.181c0.808,7.052 -0.439,20.25 -4.232,24.879c-1.039,1.268 -2.372,1.944 -3.807,1.944m-9.693,-17.487c2.779,6.26 7.214,13.154 9.602,13.48c0.141,0.019 0.373,0.054 0.805,-0.474c3.72,-4.54 4.475,-23.151 2.465,-25.396c-1.517,-1.163 -8.101,-3.562 -11.505,-1.315c-3.416,2.251 -2.643,8.66 -1.367,13.705" fill="#010202"/>
  <path id="svg_69" d="m250.267,263.39c0,0 8.739,19.857 13.851,13.617c4.325,-5.279 5.328,-25.783 2.185,-28.205c-3.147,-2.424 -22.076,-8.966 -16.036,14.588" fill="#FFD350"/>
  <path id="svg_70" d="m261.857,280.22c-0.21,0 -0.422,-0.014 -0.635,-0.043c-5.827,-0.797 -11.674,-13.453 -12.788,-15.982l-0.105,-0.309c-2.359,-9.206 -1.353,-15.328 2.999,-18.195c5.384,-3.546 13.766,-0.346 16.192,1.525c1.248,0.963 2.004,2.927 2.375,6.18c0.809,7.052 -0.439,20.25 -4.231,24.879c-1.039,1.269 -2.374,1.945 -3.807,1.945m-9.695,-17.487c2.78,6.26 7.215,13.154 9.603,13.48c0.143,0.02 0.376,0.052 0.806,-0.475c3.718,-4.538 4.475,-23.15 2.463,-25.395c-1.517,-1.162 -8.101,-3.56 -11.504,-1.315c-3.415,2.251 -2.642,8.66 -1.368,13.705" fill="#010202"/>
  <path id="svg_71" d="m252.947,251.588c3.615,8.124 27.345,10.966 35.561,-0.731c8.216,-11.699 -1.441,-53.761 -7.689,-69.74s-17.353,-8.758 -17.353,-8.758s-19.779,58.419 -10.519,79.229" fill="#74A737"/>
  <path id="svg_72" d="m270.128,260.672c-1.143,0 -2.257,-0.055 -3.326,-0.159c-7.782,-0.756 -13.791,-3.863 -15.683,-8.111c-9.47,-21.279 9.634,-78.27 10.45,-80.686c0.146,-0.425 0.428,-0.79 0.806,-1.035c0.197,-0.13 4.947,-3.157 10.403,-1.406c4.216,1.354 7.547,5.094 9.9,11.113c5.688,14.551 16.601,58.608 7.464,71.617c-4.509,6.424 -12.78,8.667 -20.014,8.667m-15.354,-9.898c1.247,2.802 6.352,5.168 12.414,5.758c6.741,0.658 15.448,-0.797 19.682,-6.825c7.304,-10.397 -1.091,-50.409 -7.915,-67.862c-1.895,-4.846 -4.384,-7.794 -7.398,-8.762c-2.732,-0.878 -5.331,0.111 -6.439,0.65c-2.222,6.784 -18.636,58.409 -10.344,77.041" fill="#010202"/>
  <g id="svg_73">
   <path id="svg_74" d="m80.394,397.746l-20.35,0l-20.979,-40.465l-0.354,0c0.498,6.363 0.747,11.223 0.747,14.576l0,25.889l-13.75,0l0,-57.438l20.271,0l20.9,39.916l0.236,0c-0.367,-5.789 -0.551,-10.438 -0.551,-13.947l0,-25.969l13.829,0l0,57.438l0.001,0z" stroke-miterlimit="10" stroke-width="3" stroke="#010202" fill="#74A737"/>
   <path id="svg_75" d="m120.938,397.746l-2.945,-5.893l-0.314,0c-2.069,2.566 -4.178,4.32 -6.325,5.264s-4.924,1.414 -8.329,1.414c-4.19,0 -7.49,-1.256 -9.899,-3.771c-2.41,-2.514 -3.614,-6.049 -3.614,-10.605c0,-4.74 1.65,-8.271 4.95,-10.588c3.3,-2.318 8.08,-3.619 14.339,-3.908l7.425,-0.236l0,-0.629c0,-3.666 -1.807,-5.5 -5.421,-5.5c-3.248,0 -7.373,1.1 -12.375,3.301l-4.438,-10.137c5.186,-2.672 11.732,-4.006 19.644,-4.006c5.709,0 10.129,1.414 13.259,4.242c3.129,2.828 4.694,6.781 4.694,11.863l0,29.189l-10.651,0zm-11.393,-10.057c1.858,0 3.451,-0.59 4.772,-1.77c1.322,-1.178 1.984,-2.711 1.984,-4.596l0,-3.457l-3.536,0.156c-5.055,0.184 -7.583,2.043 -7.583,5.58c0.002,2.726 1.456,4.087 4.363,4.087z" stroke-miterlimit="10" stroke-width="3" stroke="#010202" fill="#74A737"/>
   <path id="svg_76" d="m153.703,397.746l-16.973,-44.512l16.029,0l7.543,26.322c0.026,0.131 0.079,0.354 0.157,0.668s0.157,0.688 0.235,1.119c0.079,0.432 0.15,0.891 0.217,1.375c0.064,0.484 0.099,0.938 0.099,1.355l0.275,0c0,-1.361 0.235,-2.842 0.707,-4.439l7.896,-26.4l15.99,0l-16.972,44.512l-15.203,0z" stroke-miterlimit="10" stroke-width="3" stroke="#010202" fill="#74A737"/>
   <path id="svg_77" d="m206.622,397.746l-15.361,0l0,-44.512l15.361,0l0,44.512z" stroke-miterlimit="10" stroke-width="3" stroke="#010202" fill="#74A737"/>
   <path id="svg_78" d="m259.344,353.234l0,7.426l-6.088,2.238c0.838,1.52 1.256,3.287 1.256,5.305c0,4.793 -1.685,8.512 -5.047,11.156c-3.367,2.646 -8.39,3.969 -15.067,3.969c-1.649,0 -2.96,-0.104 -3.929,-0.314c-0.367,0.684 -0.55,1.322 -0.55,1.926c0,0.762 0.615,1.344 1.846,1.75c1.231,0.404 2.842,0.607 4.833,0.607l7.387,0c9.979,0 14.967,4.203 14.967,12.609c0,5.422 -2.311,9.639 -6.934,12.65s-11.11,4.52 -19.466,4.52c-6.313,0 -11.177,-1.057 -14.595,-3.164s-5.127,-5.141 -5.127,-9.094c0,-5.318 3.3,-8.748 9.899,-10.293c-1.361,-0.576 -2.547,-1.506 -3.556,-2.789c-1.008,-1.283 -1.512,-2.555 -1.512,-3.813c0,-1.387 0.379,-2.611 1.139,-3.674c0.759,-1.061 2.344,-2.322 4.753,-3.791c-2.305,-1.021 -4.119,-2.617 -5.441,-4.793c-1.322,-2.174 -1.983,-4.818 -1.983,-7.938c0,-4.844 1.649,-8.604 4.95,-11.273c3.3,-2.672 8.014,-4.006 14.143,-4.006c0.813,0 2.213,0.092 4.204,0.273c1.99,0.184 3.457,0.354 4.399,0.51l15.519,0l0,0.003zm-33.55,50.051c0,1.258 0.681,2.271 2.042,3.045c1.361,0.771 3.183,1.16 5.461,1.16c3.719,0 6.699,-0.467 8.937,-1.396c2.24,-0.93 3.359,-2.127 3.359,-3.594c0,-1.18 -0.683,-2.012 -2.043,-2.496c-1.361,-0.484 -3.313,-0.727 -5.854,-0.727l-6.011,0c-1.649,0 -3.044,0.387 -4.184,1.158c-1.138,0.773 -1.707,1.725 -1.707,2.85zm4.832,-35.475c0,4.559 1.584,6.836 4.754,6.836c1.466,0 2.599,-0.563 3.397,-1.689c0.8,-1.125 1.198,-2.814 1.198,-5.066c0,-4.609 -1.532,-6.916 -4.596,-6.916c-3.169,-0.001 -4.753,2.276 -4.753,6.835z" stroke-miterlimit="10" stroke-width="3" stroke="#010202" fill="#74A737"/>
   <path id="svg_79" d="m295.135,397.746l-2.947,-5.893l-0.314,0c-2.067,2.566 -4.178,4.32 -6.323,5.264c-2.148,0.943 -4.925,1.414 -8.329,1.414c-4.19,0 -7.491,-1.256 -9.9,-3.771c-2.41,-2.514 -3.614,-6.049 -3.614,-10.605c0,-4.74 1.65,-8.271 4.95,-10.588c3.3,-2.318 8.079,-3.619 14.34,-3.908l7.426,-0.236l0,-0.629c0,-3.666 -1.809,-5.5 -5.422,-5.5c-3.248,0 -7.373,1.1 -12.375,3.301l-4.439,-10.137c5.186,-2.672 11.733,-4.006 19.644,-4.006c5.709,0 10.13,1.414 13.26,4.242s4.694,6.781 4.694,11.863l0,29.189l-10.651,0zm-11.395,-10.057c1.859,0 3.45,-0.59 4.773,-1.77c1.322,-1.178 1.982,-2.711 1.982,-4.596l0,-3.457l-3.534,0.156c-5.057,0.184 -7.582,2.043 -7.582,5.58c0.002,2.726 1.455,4.087 4.361,4.087z" stroke-miterlimit="10" stroke-width="3" stroke="#010202" fill="#74A737"/>
   <path id="svg_80" d="m338.034,386.392c2.069,0 4.544,-0.512 7.427,-1.531l0,11.195c-2.069,0.893 -4.041,1.527 -5.913,1.906c-1.873,0.379 -4.066,0.568 -6.58,0.568c-5.16,0 -8.879,-1.264 -11.157,-3.791c-2.279,-2.527 -3.418,-6.408 -3.418,-11.648l0,-18.346l-5.383,0l0,-6.245l6.836,-4.834l3.968,-9.35l10.058,0l0,8.918l10.923,0l0,11.512l-10.923,0l0,17.324c-0.002,2.883 1.387,4.322 4.162,4.322z" stroke-miterlimit="10" stroke-width="3" stroke="#010202" fill="#74A737"/>
   <path id="svg_81" d="m395.746,375.392c0,7.281 -1.958,12.959 -5.873,17.031s-9.396,6.107 -16.44,6.107c-6.758,0 -12.134,-2.082 -16.127,-6.246c-3.994,-4.164 -5.991,-9.795 -5.991,-16.893c0,-7.256 1.957,-12.893 5.873,-16.914c3.915,-4.02 9.409,-6.029 16.48,-6.029c4.373,0 8.236,0.93 11.59,2.789c3.353,1.859 5.938,4.523 7.759,7.994c1.82,3.472 2.729,7.524 2.729,12.161zm-28.836,0c0,3.824 0.512,6.738 1.532,8.74c1.021,2.004 2.736,3.006 5.146,3.006c2.383,0 4.065,-1.002 5.048,-3.006c0.981,-2.002 1.474,-4.916 1.474,-8.74c0,-3.797 -0.498,-6.666 -1.493,-8.604s-2.696,-2.906 -5.106,-2.906c-2.356,0 -4.046,0.963 -5.067,2.889c-1.021,1.924 -1.534,4.797 -1.534,8.621z" stroke-miterlimit="10" stroke-width="3" stroke="#010202" fill="#74A737"/>
   <path id="svg_82" d="m431.381,352.449c1.336,0 2.604,0.104 3.811,0.314l0.864,0.156l-1.375,14.496c-1.257,-0.314 -2.999,-0.471 -5.226,-0.471c-3.354,0 -5.788,0.766 -7.308,2.299c-1.52,1.531 -2.278,3.738 -2.278,6.619l0,21.883l-15.36,0l0,-44.512l11.433,0l2.396,7.109l0.746,0c1.282,-2.355 3.069,-4.264 5.361,-5.717s4.605,-2.176 6.936,-2.176z" stroke-miterlimit="10" stroke-width="3" stroke="#010202" fill="#74A737"/>
  </g>
 </g>
</svg>