<?xml version="1.0" encoding="utf-8"?>
<!-- Generator: Adobe Illustrator 16.0.0, SVG Export Plug-In . SVG Version: 6.00 Build 0)  -->
<!DOCTYPE svg PUBLIC "-//W3C//DTD SVG 1.1//EN" "http://www.w3.org/Graphics/SVG/1.1/DTD/svg11.dtd">
<svg version="1.1" id="Calque_1" xmlns="http://www.w3.org/2000/svg" xmlns:xlink="http://www.w3.org/1999/xlink" x="0px" y="0px"
	 width="444px" height="452px" viewBox="70.14 132.445 444 452" enable-background="new 70.14 132.445 444 452"
	 xml:space="preserve">
<path fill="#FFD350" d="M196.265,358.846c0,0-4,6.788,3.011,10.776c0,0,18.328-16.796,17.767-20.725
	C216.48,344.968,208.371,337.759,196.265,358.846"/>
<path fill="#010202" d="M199.554,372.081l-1.267-0.721c-2.578-1.467-4.215-3.439-4.86-5.863c-1.02-3.824,0.917-7.324,1.104-7.646
	c8.037-14.002,14.511-16.02,18.525-15.251c3.446,0.661,5.61,3.526,5.966,6.014c0.619,4.328-11.259,15.944-18.395,22.483
	L199.554,372.081z M197.993,359.853c-0.046,0.081-1.313,2.375-0.694,4.641c0.265,0.969,0.862,1.836,1.781,2.586
	c7.683-7.162,15.627-15.752,15.969-17.976c-0.168-0.885-1.125-2.265-2.747-2.576c-5.554-1.058-12.355,9.92-14.303,13.313
	L197.993,359.853z"/>
<path fill="#A7A9AC" d="M423.091,446.654c0,17.723-55.935,32.092-124.933,32.092c-68.997,0-124.932-14.369-124.932-32.092
	c0-17.727,55.935-32.095,124.932-32.095C367.156,414.56,423.091,428.929,423.091,446.654"/>
<path fill="#74A737" d="M191.814,379.726c-10.229,15.76-13.067,38.43,4.456,65.467c4.934,7.611,61.392-17.395,78.109-9.346
	c0,0,10.14-25.029-19.959-29.375c-7.98-1.151-24.34,4.881-37.856,6.394C216.564,412.865,225.573,380.562,191.814,379.726"/>
<path fill="#010202" d="M200.885,448.65c-3.156,0-5.224-0.721-6.293-2.369c-9.025-13.924-21.604-41.228-4.456-67.646
	c0.379-0.582,1.04-0.924,1.727-0.91c10.646,0.264,18.394,3.576,23.03,9.842c5.792,7.828,5.037,18.025,4.21,22.945
	c4.831-0.725,9.934-1.912,14.895-3.068c8.446-1.969,15.735-3.667,20.709-2.951c10.135,1.463,17.088,5.363,20.666,11.594
	c5.314,9.258,1.045,20.057,0.859,20.512c-0.207,0.514-0.617,0.916-1.134,1.113c-0.514,0.201-1.089,0.178-1.587-0.063
	c-8.392-4.039-29.37,1.361-46.226,5.699C214.965,446.521,206.314,448.65,200.885,448.65 M192.888,381.765
	c-15.008,24.233-3.327,49.398,5.06,62.34c0.009,0.014,0.896,1.23,8.428-0.006c5.366-0.879,12.432-2.697,19.914-4.623
	c17.147-4.414,36.428-9.377,46.827-6.248c0.843-3.133,1.959-9.648-1.229-15.172c-2.938-5.097-8.913-8.328-17.755-9.604
	c-4.216-0.609-11.512,1.089-19.229,2.888c-6.029,1.404-12.266,2.857-18.118,3.513c-0.661,0.074-1.314-0.186-1.745-0.691
	c-0.431-0.506-0.582-1.193-0.403-1.834c0.036-0.131,3.625-13.503-2.973-22.396C207.955,384.929,201.641,382.185,192.888,381.765"/>
<path fill="#FFD350" d="M189.821,371.096c0,0-4.959,6.636-7.042,14.755c-1.332,5.19,7.828,8.922,22.143,13.926
	c0,0,10.186-4.674,8.433-12.619C211.6,379.211,203.96,366.731,189.821,371.096"/>
<path fill="#010202" d="M205.022,401.931l-0.762-0.266c-15.301-5.35-25.198-9.376-23.418-16.311
	c2.156-8.408,7.165-15.173,7.377-15.455l0.39-0.522l0.622-0.192c5.486-1.691,10.53-1.23,14.996,1.367
	c6.361,3.703,9.944,11.027,11.08,16.174c2.076,9.414-9.076,14.651-9.552,14.869L205.022,401.931z M191.05,372.821
	c-1.158,1.682-4.704,7.172-6.333,13.526c-0.97,3.776,11.363,8.216,20.05,11.257c2.023-1.119,7.782-4.812,6.634-10.017
	c-0.962-4.356-3.943-10.528-9.186-13.579C198.924,372.093,195.17,371.694,191.05,372.821"/>
<path fill="#FFD350" d="M183.646,383.157c0,0-5.425,11.863,0.961,36.368c0,0,19.672-3.004,22.949-18.028
	C209.29,393.546,197.786,378.794,183.646,383.157"/>
<path fill="#010202" d="M183.126,421.774l-0.455-1.745c-6.49-24.907-1.077-37.192-0.844-37.704l0.373-0.813l0.855-0.265
	c6.86-2.117,14.045-0.347,19.713,4.861c5.078,4.665,7.787,11.02,6.741,15.814c-1.474,6.759-6.237,12.297-13.772,16.016
	c-5.542,2.734-10.615,3.53-10.828,3.563L183.126,421.774z M185.166,384.813c-0.961,2.938-3.62,13.663,0.912,32.362
	c4.675-1.133,17.134-5.145,19.523-16.104c0.73-3.343-1.6-8.397-5.539-12.016C195.729,385.073,190.35,383.555,185.166,384.813"/>
<path fill="#74A737" d="M268.235,289.544c0,0-25.57,25.107-62.144,57.035c1.657,21.971,18.439,18.957,29.234,12.387
	c10.795-6.571,42.343-26.988,42.343-26.988L268.235,289.544z"/>
<path fill="#010202" d="M220.378,365.785c-2.451,0-4.925-0.462-7.238-1.65c-5.336-2.739-8.378-8.595-9.042-17.405
	c-0.048-0.629,0.204-1.242,0.679-1.657c36.104-31.52,61.803-56.704,62.058-56.955c0.52-0.508,1.271-0.698,1.97-0.491
	c0.696,0.207,1.227,0.774,1.384,1.484l9.435,42.434c0.182,0.816-0.164,1.659-0.865,2.113c-0.316,0.203-31.695,20.507-42.389,27.017
	C233.993,362.119,227.28,365.785,220.378,365.785 M208.173,347.417c0.681,6.77,2.964,11.193,6.794,13.16
	c5.546,2.848,13.616,0.152,19.32-3.32c9.473-5.766,35.317-22.447,41.128-26.203l-8.355-37.581
	C259.733,300.55,237.417,321.854,208.173,347.417"/>
<path fill="#FFD350" d="M201.402,369.118c0,0-4,6.788,3.012,10.775c0,0,18.328-16.795,17.766-20.725
	C221.617,355.24,213.508,348.031,201.402,369.118"/>
<path fill="#010202" d="M204.691,382.353l-1.266-0.72c-2.579-1.467-4.214-3.44-4.861-5.864c-1.021-3.828,0.923-7.332,1.105-7.647
	c8.035-13.997,14.506-16.021,18.523-15.249c3.447,0.661,5.61,3.525,5.967,6.014c0.618,4.327-11.259,15.944-18.395,22.483
	L204.691,382.353z M203.13,370.126c-0.05,0.089-1.313,2.378-0.694,4.639c0.266,0.971,0.862,1.838,1.781,2.588
	c7.683-7.164,15.627-15.754,15.97-17.977c-0.169-0.885-1.125-2.266-2.747-2.576c-5.574-1.076-12.354,9.92-14.303,13.314
	L203.13,370.126z"/>
<path fill="#29461E" d="M452.245,288.162c4.625-0.346,14.456,17.585,12.827,20.617c-1.363,2.537-8.887,5.945-13.916,7.367
	c-4.463,1.262-8.813,2.495-9.487-6.525C440.994,300.601,447.62,288.508,452.245,288.162"/>
<path fill="#010202" d="M446.663,319.021c-1.261,0-2.484-0.277-3.598-1.055c-2-1.399-3.079-4.004-3.392-8.195
	c-0.726-9.694,6.356-23.15,12.422-23.604c2.656-0.192,5.809,2.499,9.394,8.017c0.307,0.471,7.472,11.583,5.345,15.542
	c-1.947,3.623-11.036,7.187-15.134,8.345C450.082,318.528,448.342,319.021,446.663,319.021 M452.382,290.157
	c-2.941,0.249-9.364,10.674-8.72,19.314c0.205,2.742,0.809,4.595,1.696,5.215c1.038,0.728,3.181,0.121,5.25-0.465
	c5.767-1.629,11.656-4.771,12.646-6.295c0.171-1.602-2.801-8.829-7.008-14.23C454.046,290.869,452.719,290.185,452.382,290.157"/>
<path fill="#FFFFFF" d="M90.813,258.034c0,0,1.438,19.267,7.82,23.021c0,0,8.503-8.362,10.071-18.448
	C108.704,262.607,99.889,252.283,90.813,258.034"/>
<path fill="#010202" d="M98.941,283.557l-1.322-0.778c-7.08-4.165-8.646-22.517-8.801-24.596l-0.089-1.196l1.014-0.642
	c8.338-5.283,17.044,0.937,20.481,4.963l0.596,0.699l-0.141,0.907c-1.65,10.619-10.278,19.207-10.644,19.567L98.941,283.557z
	 M92.917,259.151c0.617,6.349,2.488,15.62,5.538,19.147c2.208-2.532,6.747-8.388,8.104-15.059
	C104.681,261.341,98.9,256.298,92.917,259.151"/>
<path fill="#74A737" d="M349.563,432.699c0,0,56.688,32.645,81.468-31.924c26.475-68.978,16.771-91.546,72.337-82.083
	c0,0-61.572-39.9-85.603,19.323c-24.029,59.222-35.454,55.049-51.895,39.03C349.434,361.026,331.057,424.98,349.563,432.699"/>
<path fill="#010202" d="M381.194,442.974c-16.993,0-30.968-7.604-32.52-8.479c-5.687-2.451-8.83-9.506-8.857-19.889
	c-0.042-15.775,7.422-37.292,17.105-41.392c2.511-1.062,6.339-1.505,10.346,2.397c6.91,6.733,12.276,10.68,17.689,9.545
	c8.591-1.799,18.427-17.018,30.953-47.894c6.759-16.655,17.096-27.276,30.725-31.57c11.147-3.514,24.697-2.661,39.179,2.468
	c10.849,3.84,18.328,8.649,18.642,8.854c0.797,0.516,1.12,1.52,0.775,2.404c-0.344,0.885-1.256,1.406-2.199,1.244
	c-41.461-7.062-44.682,3.194-56.66,41.349c-3.363,10.714-7.551,24.049-13.474,39.481c-7.765,20.231-19.436,33.233-34.69,38.645
	C392.435,442.189,386.657,442.974,381.194,442.974 M360.395,376.474c-0.749,0-1.389,0.203-1.912,0.424
	c-7.305,3.094-14.706,22.118-14.665,37.699c0.014,5.063,0.878,13.904,6.517,16.256c0.077,0.033,0.153,0.07,0.228,0.111
	c0.181,0.105,14.131,7.967,30.811,7.967c5.03,0,10.306-0.713,15.529-2.57c14.087-5.01,24.941-17.223,32.264-36.302
	c5.879-15.313,10.045-28.584,13.393-39.246c6.066-19.328,10.078-32.097,18.336-39.306c6.811-5.946,16.075-7.926,31.521-6.36
	c-2.367-1.081-5.076-2.208-8.027-3.25c-9.502-3.353-23.56-6.485-36.563-2.383c-12.43,3.921-21.919,13.764-28.203,29.253
	c-13.433,33.105-23.553,48.15-33.842,50.307c-7.915,1.655-14.865-4.326-21.3-10.596
	C362.892,376.933,361.521,376.474,360.395,376.474"/>
<path fill="#29461E" d="M381.198,344.252c0.924,5.198-5.857,15.911-15.995,17.713c-10.138,1.802-19.792-5.991-20.715-11.19
	c-0.924-5.197,5.822-14.291,15.959-16.092C370.584,332.881,380.274,339.054,381.198,344.252"/>
<path fill="#010202" d="M362.171,364.229c-9.826,0-18.62-7.295-19.652-13.104c-1.185-6.672,6.693-16.479,17.579-18.413
	c5.058-0.899,10.424-0.063,15.099,2.353c4.413,2.282,7.394,5.586,7.972,8.836c0.575,3.239-1.057,7.735-4.259,11.731
	c-2.067,2.582-6.554,7.092-13.355,8.301C364.419,364.136,363.287,364.229,362.171,364.229 M364.063,336.368
	c-1.104,0-2.199,0.094-3.268,0.283c-9.399,1.67-15.002,10.049-14.341,13.774c0.748,4.205,9.544,11.142,18.397,9.569
	c5.513-0.979,9.217-4.721,10.935-6.863c2.787-3.479,3.737-6.861,3.441-8.53c-0.287-1.614-2.214-4.092-5.871-5.983
	C370.507,337.144,367.247,336.368,364.063,336.368"/>
<path fill="#29461E" d="M373.385,304.734c0.924,5.198-5.858,15.911-15.995,17.714c-10.139,1.801-19.792-5.992-20.715-11.19
	c-0.925-5.198,5.82-14.292,15.959-16.093C362.771,293.364,372.46,299.537,373.385,304.734"/>
<path fill="#010202" d="M354.357,324.712c-9.827,0-18.62-7.294-19.652-13.104c-0.579-3.254,1.034-7.371,4.315-11.011
	c3.492-3.874,8.201-6.503,13.263-7.403c5.066-0.901,10.427-0.064,15.101,2.353c4.413,2.283,7.394,5.586,7.971,8.837
	c1.123,6.321-6.483,18.054-17.615,20.032C356.605,324.618,355.474,324.712,354.357,324.712 M356.363,296.836
	c-1.101,0-2.23,0.094-3.381,0.298c-5.65,1.004-9.312,4.28-10.991,6.143c-2.715,3.012-3.638,6.002-3.349,7.631
	c0.748,4.205,9.532,11.146,18.396,9.57c9.077-1.613,15.123-11.187,14.377-15.393C370.832,301.81,364.392,296.836,356.363,296.836"/>
<path fill="#29461E" d="M367.716,264.629c0.924,5.198-5.858,15.911-15.995,17.713c-10.14,1.801-19.792-5.992-20.715-11.19
	c-0.926-5.198,5.82-14.292,15.959-16.093C357.102,253.258,366.791,259.432,367.716,264.629"/>
<path fill="#010202" d="M348.688,284.607c-9.826,0-18.62-7.294-19.652-13.104c-1.185-6.672,6.694-16.479,17.579-18.413
	c5.063-0.9,10.425-0.064,15.1,2.353c4.413,2.283,7.394,5.586,7.971,8.836c0.576,3.24-1.056,7.735-4.258,11.731
	c-2.068,2.582-6.556,7.093-13.357,8.302C350.937,284.513,349.805,284.607,348.688,284.607 M350.695,256.731
	c-1.101,0-2.23,0.093-3.381,0.298c-9.4,1.67-15.002,10.049-14.341,13.774c0.748,4.206,9.535,11.148,18.396,9.57
	c5.515-0.979,9.219-4.721,10.936-6.864c2.788-3.479,3.737-6.861,3.441-8.529C365.163,261.704,358.723,256.731,350.695,256.731"/>
<path fill="#29461E" d="M362.759,194.785c0.924,5.198-5.858,15.911-15.995,17.713c-10.138,1.801-19.792-5.992-20.715-11.19
	c-0.924-5.198,5.821-14.292,15.959-16.093C352.145,183.414,361.835,189.587,362.759,194.785"/>
<path fill="#010202" d="M343.727,214.762c-4.013,0-8.114-1.213-11.836-3.539c-4.241-2.65-7.234-6.316-7.812-9.566
	c-0.579-3.254,1.034-7.37,4.314-11.009c3.493-3.874,8.202-6.503,13.264-7.403c5.063-0.899,10.425-0.064,15.1,2.353
	c4.413,2.283,7.394,5.586,7.971,8.836c0.575,3.24-1.056,7.735-4.259,11.731c-2.067,2.582-6.554,7.093-13.355,8.302
	C345.998,214.664,344.865,214.762,343.727,214.762 M345.738,186.886c-1.101,0-2.23,0.093-3.381,0.298
	c-5.651,1.004-9.313,4.279-10.991,6.142c-2.715,3.012-3.638,6.003-3.349,7.632c0.301,1.695,2.305,4.568,5.992,6.873
	c2.28,1.425,6.922,3.672,12.403,2.697c5.513-0.979,9.218-4.721,10.936-6.864c2.786-3.479,3.737-6.861,3.44-8.529
	C360.206,191.859,353.766,186.886,345.738,186.886"/>
<path fill="#29461E" d="M374.317,366.926c6.603-0.839,13.105,7.541,14.527,18.718c1.42,11.178-3.954,14.393-10.138,16.94
	c-13.521,5.569-14.427-1.864-15.847-13.041S367.715,367.765,374.317,366.926"/>
<path fill="#010202" d="M371.115,406.476c-1.673,0-3.104-0.36-4.341-1.08c-4.229-2.459-4.959-8.217-5.885-15.508
	c-0.723-5.674,0.35-11.645,2.927-16.473c2.609-4.889,6.345-7.979,10.249-8.473c3.928-0.499,7.845,1.492,11.039,5.611
	c2.959,3.813,4.992,9.084,5.724,14.838c1.602,12.594-5.022,16.432-11.357,19.041C376.155,405.798,373.408,406.476,371.115,406.476
	 M375.232,368.868c-0.223,0-0.443,0.014-0.663,0.042c-2.562,0.325-5.263,2.714-7.225,6.39c-2.195,4.113-3.106,9.213-2.499,13.99
	c0.768,6.044,1.42,11.182,3.938,12.648c1.715,0.996,4.796,0.593,9.161-1.204c5.814-2.396,10.163-5.009,8.913-14.839
	c-0.642-5.055-2.388-9.633-4.915-12.891C379.856,370.314,377.496,368.868,375.232,368.868"/>
<path fill="#29461E" d="M397.864,344.968c3.02-1.88,14.799,1.411,18.787,10.903c2.152,5.119-2.63,17.505-8.33,22.36
	c-4.291,3.654-8.205,1.882-12.192-7.61C392.138,361.129,393.384,347.759,397.864,344.968"/>
<path fill="#010202" d="M404.362,381.999c-0.475,0-0.947-0.056-1.418-0.168c-3.241-0.771-5.993-4.088-8.661-10.436
	c-4.298-10.227-3.001-24.684,2.523-28.125v-0.001c2.493-1.554,6.607-0.497,8.263,0.03c6.12,1.947,11.141,6.356,13.426,11.797
	c2.625,6.244-2.95,19.609-8.876,24.656C407.865,381.247,406.103,381.999,404.362,381.999 M398.922,346.665
	c-3.188,1.987-4.83,13.951-0.951,23.182c2.718,6.467,4.863,7.847,5.898,8.093c0.333,0.078,1.336,0.317,3.155-1.231
	c5.535-4.715,9.424-16.156,7.782-20.063c-2.726-6.48-9.07-8.936-10.95-9.534C401.057,346.221,399.294,346.432,398.922,346.665"/>
<path fill="#29461E" d="M420.381,312.788c3.981-2.572,13.423,2.467,15.805,11.193c1.284,4.71-6.273,14.93-10.984,19.34
	c-3.385,3.172-7.198,3.08-9.581-5.646C413.239,328.949,416.486,315.306,420.381,312.788"/>
<path fill="#010202" d="M421.339,347.229c-0.54,0-1.021-0.081-1.438-0.199c-2.771-0.784-4.804-3.672-6.212-8.828
	c-2.443-8.951,0.647-23.89,5.605-27.093c1.949-1.261,4.666-1.328,7.646-0.187c3.992,1.525,9.313,5.725,11.172,12.532
	c1.743,6.388-7.854,17.867-11.546,21.326C424.544,346.679,422.744,347.229,421.339,347.229 M421.466,314.468
	c-2.7,1.746-6.244,14.15-3.916,22.681c1.389,5.088,2.984,5.903,3.44,6.032c0.95,0.268,2.192-0.709,2.845-1.318
	c5.319-4.984,11.294-14.154,10.421-17.354c-1.37-5.02-5.378-8.564-8.741-9.851C423.808,314.005,422.294,313.933,421.466,314.468"/>
<path fill="#74A737" d="M364.389,407.955c2.796-8.676,3.533-18.929,1.483-30.909c-13.017-76.092-27.451-129.906-27.451-129.906
	c46.806-5.507,24.715-49.81,0.25-43.052c2.628-8.243,1.31-16.275,0.437-22.491c-4.19-29.822-45.239-31.692-54.752-2.116
	c-3.716-6.667-19.009-9.347-30.359-4.511c-10.251,4.367-20.951,21.359-7.34,42.211c-4.93-1.197-13.611-11.686-30.132,0
	c0,0-21.024-13.939-31.537,0c0,0-15.019-15.44-31.537,0c0,0-47.308-25.342-66.33-2.116c-4.853,5.925-9.262,18.809-6.258,31.324
	c1.567,6.531,10.263,17.02,33.54,16.269c23.278-0.751,108.965-4.255,144.751-15.622c56.114,59.425-33.541,162.473-6.508,187.502
	c15.258,14.129,53.511,18.229,81.6,5.438C349.563,432.699,357.319,427.851,364.389,407.955"/>
<path fill="#010202" d="M296.378,449.572c-18.172,0-35.496-4.684-45.091-13.564c-11.932-11.047-3.731-33.956,6.647-62.959
	c14.257-39.833,31.968-89.324,0.609-123.728c-36.514,11.09-119.337,14.539-144.079,15.338c-30.168,0.975-35.087-15.877-35.55-17.802
	c-3.038-12.658,1.049-26.212,6.654-33.058c8.3-10.133,22.934-13.011,42.316-8.328c11.775,2.845,21.808,7.577,25.249,9.302
	c14.084-12.176,27.142-4.011,31.635-0.427c9.001-9.468,23.878-4.328,31.711,0.441c11.704-7.767,19.867-5.027,25.271-2.254
	c-4.616-9.779-3.924-17.838-2.296-23.197c2.226-7.329,7.497-13.538,13.755-16.204c10.323-4.397,24.094-2.983,30.458,2.471
	c6.233-14.6,19.982-20.23,31.5-19.249c13.779,1.185,23.953,10.985,25.919,24.966l0.118,0.839c0.784,5.526,1.735,12.229,0.211,19.364
	c7.129-0.813,14.314,2.017,19.735,7.927c6.189,6.746,8.305,15.586,5.524,23.07c-3.159,8.506-12.263,14.248-25.749,16.301
	c2.821,10.885,15.491,61.099,26.916,127.888c2.004,11.724,1.481,22.443-1.554,31.861c-0.006,0.019-0.012,0.036-0.019,0.056
	c-7.481,21.05-16.274,26.082-31.171,33.16C323.563,447.039,309.74,449.572,296.378,449.572 M259.154,245.036
	c0.541,0,1.07,0.22,1.454,0.627c34.203,36.222,15.846,87.517,1.095,128.733c-9.492,26.52-17.689,49.424-7.698,58.676
	c14.096,13.053,51.052,18,79.41,5.086c14.308-6.797,22.115-11.268,29.079-30.844c2.827-8.791,3.302-18.861,1.407-29.931
	c-12.851-75.131-27.268-129.187-27.412-129.725c-0.149-0.561-0.05-1.16,0.276-1.641c0.327-0.48,0.845-0.795,1.422-0.863
	c13.17-1.55,21.956-6.532,24.741-14.028c2.221-5.977,0.366-13.425-4.724-18.973c-5.218-5.688-12.321-7.982-19.003-6.137
	c-0.705,0.196-1.466-0.012-1.974-0.542c-0.509-0.528-0.688-1.294-0.464-1.993c2.372-7.44,1.323-14.826,0.479-20.761l-0.118-0.844
	c-1.695-12.065-10.449-20.518-22.302-21.537c-10.767-0.922-23.766,4.824-28.565,19.754c-0.244,0.758-0.915,1.299-1.707,1.378
	c-0.798,0.083-1.557-0.321-1.944-1.017c-3.047-5.469-17.092-8.218-27.828-3.644c-4.075,1.736-9.234,6.244-11.496,13.688
	c-1.689,5.56-2.185,14.513,5.047,25.59c0.447,0.687,0.432,1.578-0.042,2.248c-0.475,0.671-1.31,0.981-2.105,0.789
	c-1.314-0.319-2.657-1.065-4.21-1.928c-5.204-2.89-12.33-6.846-24.293,1.617c-0.673,0.476-1.57,0.49-2.259,0.035
	c-0.195-0.129-19.588-12.728-28.837-0.463c-0.353,0.466-0.89,0.755-1.471,0.792c-0.586,0.03-1.153-0.184-1.561-0.602
	c-0.557-0.567-13.885-13.817-28.738,0.066c-0.625,0.587-1.555,0.708-2.309,0.303c-0.459-0.245-46.078-24.295-63.839-2.613
	c-4.86,5.934-8.565,18.321-5.86,29.59c1.395,5.807,9.61,15.46,31.531,14.738c24.889-0.803,108.845-4.296,144.212-15.53
	C258.748,245.067,258.952,245.036,259.154,245.036"/>
<path fill="#FFFFFF" d="M284.355,198.331c0,10.411-8.439,18.85-18.85,18.85c-10.411,0-18.853-8.439-18.853-18.85
	s8.44-18.85,18.853-18.85C275.915,179.481,284.355,187.92,284.355,198.331"/>
<path fill="#010202" d="M265.505,219.182c-11.496,0-20.851-9.354-20.851-20.851c0-11.496,9.354-20.85,20.851-20.85
	c11.497,0,20.851,9.354,20.851,20.85C286.355,209.828,277.002,219.182,265.505,219.182 M265.505,181.481
	c-9.291,0-16.851,7.559-16.851,16.85c0,9.292,7.56,16.851,16.851,16.851s16.851-7.559,16.851-16.851
	C282.355,189.04,274.796,181.481,265.505,181.481"/>
<path fill="#F6EA4B" d="M278.365,198.331c0,7.102-5.758,12.86-12.859,12.86c-7.103,0-12.859-5.758-12.859-12.86
	s5.758-12.86,12.859-12.86S278.365,191.229,278.365,198.331"/>
<path fill="#010202" d="M273.748,198.331c0,4.552-3.69,8.243-8.243,8.243c-4.552,0-8.242-3.691-8.242-8.243
	c0-4.552,3.69-8.243,8.242-8.243C270.058,190.088,273.748,193.779,273.748,198.331"/>
<path fill="#FFFFFF" d="M277.284,191.839c0,3.797-3.078,6.874-6.874,6.874c-3.798,0-6.874-3.077-6.874-6.874
	s3.076-6.874,6.874-6.874C274.206,184.965,277.284,188.042,277.284,191.839"/>
<path fill="#FFFFFF" d="M333.413,198.331c0,13.547-10.98,24.529-24.527,24.529c-13.549,0-24.53-10.982-24.53-24.529
	s10.981-24.529,24.53-24.529C322.433,173.802,333.413,184.784,333.413,198.331"/>
<path fill="#010202" d="M308.885,224.861c-14.628,0-26.529-11.901-26.529-26.53c0-14.628,11.901-26.529,26.529-26.529
	s26.528,11.901,26.528,26.529C335.413,212.96,323.513,224.861,308.885,224.861 M308.885,175.802
	c-12.423,0-22.529,10.106-22.529,22.529s10.106,22.53,22.529,22.53s22.528-10.107,22.528-22.53S321.308,175.802,308.885,175.802"/>
<path fill="#F6EA4B" d="M325.618,198.331c0,9.242-7.491,16.734-16.733,16.734c-9.241,0-16.733-7.492-16.733-16.734
	s7.492-16.734,16.733-16.734C318.127,181.597,325.618,189.089,325.618,198.331"/>
<path fill="#010202" d="M319.611,198.331c0,5.924-4.803,10.726-10.727,10.726s-10.727-4.802-10.727-10.726
	s4.803-10.726,10.727-10.726S319.611,192.407,319.611,198.331"/>
<path fill="#FFFFFF" d="M324.213,189.883c0,4.94-4.006,8.945-8.945,8.945c-4.94,0-8.944-4.005-8.944-8.945
	c0-4.94,4.004-8.945,8.944-8.945C320.207,180.938,324.213,184.943,324.213,189.883"/>
<path fill="#010202" d="M292.151,155.78c0,0,25.995-22.026,40.262,1.001C332.412,156.781,318.218,117.734,292.151,155.78"/>
<path fill="#010202" d="M243.349,170.578c0,0,19.979-23.441,36.065-4.978C279.414,165.6,261.056,132.834,243.349,170.578"/>
<path fill="#29461E" d="M137.779,235.575c-2.815,6.913-8.757,11.028-13.27,9.19c-4.513-1.838-5.888-8.933-3.073-15.846
	c2.816-6.914,8.757-11.028,13.271-9.19C139.219,221.567,140.595,228.662,137.779,235.575"/>
<path fill="#010202" d="M126.812,247.211c-1.043,0-2.07-0.193-3.057-0.594c-2.83-1.152-4.781-3.813-5.495-7.491
	c-0.653-3.37-0.183-7.263,1.324-10.962c3.28-8.057,10.255-12.576,15.876-10.287c2.829,1.152,4.779,3.812,5.493,7.491
	c0.653,3.369,0.184,7.262-1.322,10.961C136.925,242.973,131.709,247.211,126.812,247.211 M132.406,221.287
	c-3.223,0-7.1,3.43-9.117,8.386c-1.218,2.989-1.608,6.075-1.102,8.691c0.26,1.337,1.004,3.704,3.076,4.548
	c3.421,1.396,8.309-2.31,10.664-8.092c1.216-2.988,1.607-6.075,1.1-8.691c-0.259-1.336-1.004-3.704-3.075-4.548
	C133.462,221.382,132.943,221.287,132.406,221.287"/>
<path fill="#FFD350" d="M139.221,261.63c0,0-1.041,20.713,18.983,17.003c20.023-3.71,85.4-15.349,95.367-17.289
	c38.579,38.109-49.062,123.711-14.525,162.201c31.215,34.789,98.374,19.58,94.369-17.463
	c-4.005-37.045-14.958-152.454-9.201-173.834C324.213,232.247,215.398,258.153,139.221,261.63"/>
<path fill="#010202" d="M285.687,445.078c-17.111,0.002-35.355-5.961-48.13-20.197c-17.787-19.823-4.826-51.236,7.708-81.615
	c12.415-30.092,25.247-61.195,7.629-79.754c-6.712,1.274-26.65,4.862-47.689,8.647c-18.399,3.312-37.425,6.735-46.636,8.441
	c-6.475,1.2-11.655,0.147-15.399-3.129c-6.39-5.591-5.966-15.52-5.945-15.94l0.091-1.815l1.815-0.083
	c75.113-3.428,183.532-29.072,184.62-29.331l3.268-0.778l-0.873,3.244c-5.532,20.548,4.808,131.92,9.258,173.1
	c1.552,14.349-6.698,26.654-22.636,33.761C304.945,443.117,295.501,445.078,285.687,445.078 M254.225,259.179l0.751,0.742
	c20.604,20.352,7.072,53.15-6.014,84.869c-12.617,30.582-24.535,59.468-8.427,77.418c18.835,20.992,50.433,22.76,70.603,13.766
	c14.245-6.354,21.641-17.17,20.288-29.678c-0.155-1.436-14.896-138.769-9.792-171.395c-18.021,4.149-112.112,25.2-180.368,28.633
	c0.189,2.719,1.027,7.866,4.551,10.938c2.776,2.42,6.82,3.158,12.023,2.195c9.221-1.709,28.252-5.134,46.656-8.445
	c21.301-3.833,43.328-7.797,48.692-8.841L254.225,259.179z"/>
<path fill="#FFFFFF" d="M147.442,261.176c0,0,5.877,21.665,12.765,24.385c0,0,8.469-15.494,8.455-25.701
	C168.662,259.86,156.033,259.558,147.442,261.176"/>
<path fill="#010202" d="M161.114,288.07l-1.642-0.648c-7.602-3.002-13.332-23.406-13.96-25.722l-0.567-2.089l2.127-0.4
	c8.697-1.638,21.114-1.363,21.638-1.35l1.949,0.047l0.003,1.949c0.015,10.598-8.345,26.012-8.7,26.664L161.114,288.07z
	 M149.983,262.785c2.113,7.042,5.887,16.588,9.455,19.905c2.001-4.001,6.401-13.491,7.122-20.85
	C163.127,261.825,155.93,261.936,149.983,262.785"/>
<path fill="#FFFFFF" d="M228.759,251.215c0,0-6.136-14.41-11.734-15.84c0,0-4.191,9.496-4.692,18.441
	C212.332,253.816,220.779,252.396,228.759,251.215"/>
<path fill="#010202" d="M210.195,256.204l0.141-2.499c0.515-9.202,4.683-18.735,4.859-19.137l0.685-1.549l1.641,0.419
	c1.094,0.28,6.87,2.414,13.079,16.994l1.015,2.384l-2.563,0.378c-7.869,1.165-16.303,2.581-16.387,2.595L210.195,256.204z
	 M218.064,238.15c-1.04,2.737-2.814,7.957-3.5,13.269c2.606-0.428,6.876-1.119,11.276-1.788
	C223.717,245.236,220.633,240.173,218.064,238.15"/>
<path fill="#010202" d="M276.87,274.394c-10.269,0-17.396-5.122-24.629-11.556c-0.825-0.734-0.899-1.998-0.165-2.824
	c0.732-0.824,1.998-0.899,2.822-0.164c10.983,9.77,22.338,19.87,59.244-5.213c0.913-0.621,2.159-0.383,2.778,0.53
	c0.621,0.914,0.384,2.158-0.53,2.779C298.742,269.94,286.442,274.394,276.87,274.394"/>
<path fill="#010202" d="M284.915,299.318c-15.818,0-22.495-7.814-22.928-8.343c-0.698-0.855-0.572-2.115,0.28-2.814
	c0.854-0.696,2.106-0.573,2.81,0.273c0.197,0.235,15.741,17.793,57.447-4.634c0.974-0.525,2.186-0.159,2.709,0.814
	c0.522,0.973,0.158,2.185-0.813,2.708C307.464,296.442,294.507,299.318,284.915,299.318"/>
<path fill="#010202" d="M286.277,330.488c-20.038,0-29.886-10.491-30.497-11.166c-0.74-0.819-0.679-2.084,0.141-2.825
	c0.817-0.74,2.081-0.679,2.822,0.137c0.879,0.957,21.48,22.53,65.93-1.373c0.974-0.525,2.186-0.158,2.709,0.813
	c0.521,0.974,0.157,2.187-0.814,2.709C310.216,327.575,296.833,330.488,286.277,330.488"/>
<path fill="#010202" d="M280.743,363.766c-5.026,0-10.09-0.56-15.098-1.843c-13.774-3.533-20.516-10.842-20.796-11.15
	c-0.741-0.818-0.679-2.083,0.14-2.824c0.817-0.74,2.08-0.679,2.821,0.135c0.063,0.068,6.381,6.845,19.099,10.033
	c21.377,5.359,44.132-3.341,59.457-11.582c0.975-0.524,2.186-0.158,2.709,0.814c0.522,0.973,0.158,2.186-0.813,2.709
	C315.763,356.78,298.496,363.766,280.743,363.766"/>
<path fill="#010202" d="M276.14,404.843c-6.471,0-13.039-0.752-19.585-2.49c-16.873-4.482-25.46-13.346-25.817-13.721
	c-0.762-0.801-0.73-2.066,0.069-2.828c0.799-0.76,2.063-0.73,2.825,0.066c0.081,0.084,8.322,8.529,24.197,12.682
	c14.688,3.842,39.127,4.694,72.145-13.062c0.974-0.524,2.186-0.157,2.709,0.813c0.521,0.974,0.158,2.188-0.814,2.709
	C317.367,396.811,297.294,404.843,276.14,404.843"/>
<path fill="#74A737" d="M362.105,430.468c0,26.043-13.962,47.156-31.185,47.156c-17.224,0-31.186-21.113-31.186-47.156
	c0-26.045,11.763-68.372,30.115-23.606C345.843,363.757,362.105,404.423,362.105,430.468"/>
<path fill="#010202" d="M330.921,479.625c-18.299,0-33.187-22.051-33.187-49.156c0-16.953,4.914-43.004,15.459-45.083
	c5.574-1.104,11.033,4.231,16.582,16.276c4.914-11.37,10.363-16.593,16.215-15.546c6.476,1.163,10.801,9.713,13.289,16.682
	c3.021,8.461,4.825,18.806,4.825,27.67C364.105,457.574,349.219,479.625,330.921,479.625 M314.507,389.261
	c-0.203,0-0.384,0.02-0.54,0.051c-5.655,1.113-12.231,19.335-12.231,41.156c0,24.898,13.093,45.156,29.187,45.156
	c16.093,0,29.185-20.258,29.185-45.156c0-16.642-6.978-39.006-14.82-40.414c-4.277-0.777-9.087,5.451-13.559,17.504
	c-0.286,0.771-1.018,1.289-1.841,1.304c-0.012,0-0.023,0-0.034,0c-0.812,0-1.542-0.49-1.851-1.241
	C321.407,391.537,316.661,389.261,314.507,389.261"/>
<path fill="#FFD350" d="M300.845,415.494c5.95,5.461,17.851,10.345,29.876,1.601c6.799,6.246,20.084,3.826,29.877-1.638
	c-6.096-29.589-20.063-37.397-30.746-8.596C316.642,374.64,303.706,388.837,300.845,415.494"/>
<path fill="#010202" d="M316.81,423.923c-6.944,0-13.119-3.103-17.317-6.956l-0.744-0.684l0.108-1.003
	c1.805-16.815,7.368-27.892,14.521-28.906c5.695-0.813,11.215,4.345,16.399,15.341c5.614-12.687,11.418-15.17,15.471-14.855
	c7.427,0.566,13.734,10.842,17.311,28.193l0.296,1.437l-1.28,0.714c-9.57,5.339-22.996,8.16-30.95,2.389
	C325.913,422.679,321.206,423.923,316.81,423.923 M302.948,414.681c6.106,5.115,16.418,8.195,26.597,0.797l1.322-0.963l1.205,1.107
	c5.707,5.243,17.253,3.395,26.255-1.219c-3.706-16.863-9.305-23.244-13.385-23.555c-4.326-0.321-9.155,5.76-13.217,16.709
	l-1.782,4.804L328,407.62c-4.747-11.581-9.881-17.886-14.063-17.285C309.049,391.03,304.581,400.98,302.948,414.681"/>
<path fill="#FFD350" d="M343.082,446.417c0,7.719-5.365,13.979-11.984,13.979s-11.985-6.26-11.985-13.979
	c0-7.721,5.366-13.979,11.985-13.979S343.082,438.697,343.082,446.417"/>
<path fill="#010202" d="M331.098,462.396c-7.712,0-13.985-7.168-13.985-15.979s6.273-15.979,13.985-15.979
	s13.984,7.168,13.984,15.979S338.81,462.396,331.098,462.396 M331.098,434.439c-5.506,0-9.985,5.371-9.985,11.979
	c0,6.605,4.479,11.979,9.985,11.979s9.984-5.373,9.984-11.979C341.082,439.81,336.604,434.439,331.098,434.439"/>
<path fill="#FFD350" d="M331.902,394.39c0,0,8.739,19.857,13.851,13.617c4.324-5.279,5.327-25.783,2.185-28.205
	C344.79,377.378,325.862,370.836,331.902,394.39"/>
<path fill="#010202" d="M343.492,411.22c-0.21,0-0.422-0.014-0.635-0.043c-5.826-0.797-11.674-13.453-12.787-15.982l-0.105-0.309
	c-2.361-9.206-1.354-15.329,2.999-18.195c5.383-3.546,13.765-0.346,16.191,1.525c1.247,0.963,2.004,2.927,2.376,6.181
	c0.808,7.052-0.439,20.25-4.232,24.879C346.26,410.544,344.927,411.22,343.492,411.22 M333.799,393.733
	c2.779,6.26,7.214,13.154,9.602,13.48c0.141,0.019,0.373,0.054,0.805-0.474c3.72-4.54,4.475-23.151,2.465-25.396
	c-1.517-1.163-8.101-3.562-11.505-1.315C331.75,382.279,332.523,388.688,333.799,393.733"/>
<path fill="#FFD350" d="M311.267,394.39c0,0,8.739,19.857,13.851,13.617c4.325-5.279,5.328-25.783,2.185-28.205
	C324.156,377.378,305.227,370.836,311.267,394.39"/>
<path fill="#010202" d="M322.857,411.22c-0.21,0-0.422-0.014-0.635-0.043c-5.827-0.797-11.674-13.453-12.788-15.982l-0.105-0.309
	c-2.359-9.206-1.353-15.328,2.999-18.195c5.384-3.546,13.766-0.346,16.192,1.525c1.248,0.963,2.004,2.927,2.375,6.18
	c0.809,7.052-0.439,20.25-4.231,24.879C325.625,410.544,324.29,411.22,322.857,411.22 M313.162,393.733
	c2.78,6.26,7.215,13.154,9.603,13.48c0.143,0.02,0.376,0.052,0.806-0.475c3.718-4.538,4.475-23.15,2.463-25.395
	c-1.517-1.162-8.101-3.56-11.504-1.315C311.115,382.279,311.888,388.688,313.162,393.733"/>
<path fill="#74A737" d="M313.947,382.588c3.615,8.124,27.345,10.966,35.561-0.731c8.216-11.699-1.441-53.761-7.689-69.74
	s-17.353-8.758-17.353-8.758S304.687,361.778,313.947,382.588"/>
<path fill="#010202" d="M331.128,391.672c-1.143,0-2.257-0.055-3.326-0.159c-7.782-0.756-13.791-3.863-15.683-8.111
	c-9.47-21.279,9.634-78.27,10.45-80.686c0.146-0.425,0.428-0.79,0.806-1.035c0.197-0.13,4.947-3.157,10.403-1.406
	c4.216,1.354,7.547,5.094,9.9,11.113c5.688,14.551,16.601,58.608,7.464,71.617C346.633,389.429,338.362,391.672,331.128,391.672
	 M315.774,381.774c1.247,2.802,6.352,5.168,12.414,5.758c6.741,0.658,15.448-0.797,19.682-6.825
	c7.304-10.397-1.091-50.409-7.915-67.862c-1.895-4.846-4.384-7.794-7.398-8.762c-2.732-0.878-5.331,0.111-6.439,0.65
	C323.896,311.517,307.482,363.142,315.774,381.774"/>
<g>
	<path fill="#74A737" stroke="#010202" stroke-width="3" stroke-miterlimit="10" d="M137.394,557.746h-20.35l-20.979-40.465h-0.354
		c0.498,6.363,0.747,11.223,0.747,14.576v25.889h-13.75v-57.438h20.271l20.9,39.916h0.236c-0.367-5.789-0.551-10.438-0.551-13.947
		v-25.969h13.829V557.746z"/>
	<path fill="#74A737" stroke="#010202" stroke-width="3" stroke-miterlimit="10" d="M177.938,557.746l-2.945-5.893h-0.314
		c-2.069,2.566-4.178,4.32-6.325,5.264s-4.924,1.414-8.329,1.414c-4.19,0-7.49-1.256-9.899-3.771
		c-2.41-2.514-3.614-6.049-3.614-10.605c0-4.74,1.65-8.271,4.95-10.588c3.3-2.318,8.08-3.619,14.339-3.908l7.425-0.236v-0.629
		c0-3.666-1.807-5.5-5.421-5.5c-3.248,0-7.373,1.1-12.375,3.301l-4.438-10.137c5.186-2.672,11.732-4.006,19.644-4.006
		c5.709,0,10.129,1.414,13.259,4.242c3.129,2.828,4.694,6.781,4.694,11.863v29.189H177.938z M166.545,547.689
		c1.858,0,3.451-0.59,4.772-1.77c1.322-1.178,1.984-2.711,1.984-4.596v-3.457l-3.536,0.156c-5.055,0.184-7.583,2.043-7.583,5.58
		C162.184,546.328,163.638,547.689,166.545,547.689z"/>
	<path fill="#74A737" stroke="#010202" stroke-width="3" stroke-miterlimit="10" d="M210.703,557.746l-16.973-44.512h16.029
		l7.543,26.322c0.026,0.131,0.079,0.354,0.157,0.668s0.157,0.688,0.235,1.119c0.079,0.432,0.15,0.891,0.217,1.375
		c0.064,0.484,0.099,0.938,0.099,1.355h0.275c0-1.361,0.235-2.842,0.707-4.439l7.896-26.4h15.99l-16.972,44.512H210.703z"/>
	<path fill="#74A737" stroke="#010202" stroke-width="3" stroke-miterlimit="10" d="M263.622,557.746h-15.361v-44.512h15.361
		V557.746z"/>
	<path fill="#74A737" stroke="#010202" stroke-width="3" stroke-miterlimit="10" d="M316.344,513.234v7.426l-6.088,2.238
		c0.838,1.52,1.256,3.287,1.256,5.305c0,4.793-1.685,8.512-5.047,11.156c-3.367,2.646-8.39,3.969-15.067,3.969
		c-1.649,0-2.96-0.104-3.929-0.314c-0.367,0.684-0.55,1.322-0.55,1.926c0,0.762,0.615,1.344,1.846,1.75
		c1.231,0.404,2.842,0.607,4.833,0.607h7.387c9.979,0,14.967,4.203,14.967,12.609c0,5.422-2.311,9.639-6.934,12.65
		s-11.11,4.52-19.466,4.52c-6.313,0-11.177-1.057-14.595-3.164s-5.127-5.141-5.127-9.094c0-5.318,3.3-8.748,9.899-10.293
		c-1.361-0.576-2.547-1.506-3.556-2.789c-1.008-1.283-1.512-2.555-1.512-3.813c0-1.387,0.379-2.611,1.139-3.674
		c0.759-1.061,2.344-2.322,4.753-3.791c-2.305-1.021-4.119-2.617-5.441-4.793c-1.322-2.174-1.983-4.818-1.983-7.938
		c0-4.844,1.649-8.604,4.95-11.273c3.3-2.672,8.014-4.006,14.143-4.006c0.813,0,2.213,0.092,4.204,0.273
		c1.99,0.184,3.457,0.354,4.399,0.51h15.519V513.234z M282.794,563.285c0,1.258,0.681,2.271,2.042,3.045
		c1.361,0.771,3.183,1.16,5.461,1.16c3.719,0,6.699-0.467,8.937-1.396c2.24-0.93,3.359-2.127,3.359-3.594
		c0-1.18-0.683-2.012-2.043-2.496c-1.361-0.484-3.313-0.727-5.854-0.727h-6.011c-1.649,0-3.044,0.387-4.184,1.158
		C283.363,561.208,282.794,562.16,282.794,563.285z M287.626,527.81c0,4.559,1.584,6.836,4.754,6.836
		c1.466,0,2.599-0.563,3.397-1.689c0.8-1.125,1.198-2.814,1.198-5.066c0-4.609-1.532-6.916-4.596-6.916
		C289.21,520.974,287.626,523.251,287.626,527.81z"/>
	<path fill="#74A737" stroke="#010202" stroke-width="3" stroke-miterlimit="10" d="M352.135,557.746l-2.947-5.893h-0.314
		c-2.067,2.566-4.178,4.32-6.323,5.264c-2.148,0.943-4.925,1.414-8.329,1.414c-4.19,0-7.491-1.256-9.9-3.771
		c-2.41-2.514-3.614-6.049-3.614-10.605c0-4.74,1.65-8.271,4.95-10.588c3.3-2.318,8.079-3.619,14.34-3.908l7.426-0.236v-0.629
		c0-3.666-1.809-5.5-5.422-5.5c-3.248,0-7.373,1.1-12.375,3.301l-4.439-10.137c5.186-2.672,11.733-4.006,19.644-4.006
		c5.709,0,10.13,1.414,13.26,4.242s4.694,6.781,4.694,11.863v29.189H352.135z M340.74,547.689c1.859,0,3.45-0.59,4.773-1.77
		c1.322-1.178,1.982-2.711,1.982-4.596v-3.457l-3.534,0.156c-5.057,0.184-7.582,2.043-7.582,5.58
		C336.381,546.328,337.834,547.689,340.74,547.689z"/>
	<path fill="#74A737" stroke="#010202" stroke-width="3" stroke-miterlimit="10" d="M395.034,546.392
		c2.069,0,4.544-0.512,7.427-1.531v11.195c-2.069,0.893-4.041,1.527-5.913,1.906c-1.873,0.379-4.066,0.568-6.58,0.568
		c-5.16,0-8.879-1.264-11.157-3.791c-2.279-2.527-3.418-6.408-3.418-11.648v-18.346h-5.383V518.5l6.836-4.834l3.968-9.35h10.058
		v8.918h10.923v11.512h-10.923v17.324C390.87,544.953,392.259,546.392,395.034,546.392z"/>
	<path fill="#74A737" stroke="#010202" stroke-width="3" stroke-miterlimit="10" d="M452.746,535.392
		c0,7.281-1.958,12.959-5.873,17.031s-9.396,6.107-16.44,6.107c-6.758,0-12.134-2.082-16.127-6.246
		c-3.994-4.164-5.991-9.795-5.991-16.893c0-7.256,1.957-12.893,5.873-16.914c3.915-4.02,9.409-6.029,16.48-6.029
		c4.373,0,8.236,0.93,11.59,2.789c3.353,1.859,5.938,4.523,7.759,7.994C451.837,526.703,452.746,530.755,452.746,535.392z
		 M423.91,535.392c0,3.824,0.512,6.738,1.532,8.74c1.021,2.004,2.736,3.006,5.146,3.006c2.383,0,4.065-1.002,5.048-3.006
		c0.981-2.002,1.474-4.916,1.474-8.74c0-3.797-0.498-6.666-1.493-8.604s-2.696-2.906-5.106-2.906c-2.356,0-4.046,0.963-5.067,2.889
		C424.423,528.695,423.91,531.568,423.91,535.392z"/>
	<path fill="#74A737" stroke="#010202" stroke-width="3" stroke-miterlimit="10" d="M488.381,512.449
		c1.336,0,2.604,0.104,3.811,0.314l0.864,0.156l-1.375,14.496c-1.257-0.314-2.999-0.471-5.226-0.471
		c-3.354,0-5.788,0.766-7.308,2.299c-1.52,1.531-2.278,3.738-2.278,6.619v21.883h-15.36v-44.512h11.433l2.396,7.109h0.746
		c1.282-2.355,3.069-4.264,5.361-5.717S486.05,512.449,488.381,512.449z"/>
</g>
<rect x="116.146" y="481.308" fill="none" width="414.177" height="38"/>
<text transform="matrix(1 0 0 1 150.219 497.269)" fill="#FFD350" font-family="'OpenSans-Extrabold'" font-size="21">Le navigateur de fichiers sympa</text>
</svg>
